<svg width="1000" height="1000" viewBox="0 0 1000 1000" fill="none" xmlns="http://www.w3.org/2000/svg">
<g clip-path="url(#clip0_1_4)" filter="url(#filter0_b_1_4)">
<g filter="url(#filter1_d_1_4)">
<mask id="path-1-outside-1_1_4" maskUnits="userSpaceOnUse" x="2" y="135" width="995" height="730" fill="black">
<rect fill="white" x="2" y="135" width="995" height="730"/>
<path d="M446.495 147.294C446.017 196.993 446.256 247.646 447.212 299.256C448.645 350.388 451.035 401.281 454.38 451.934C458.203 502.588 463.22 552.047 469.432 600.312C476.123 648.577 484.724 694.452 495.237 737.938C496.193 743.194 498.104 748.451 500.972 753.707C503.839 758.964 506.467 764.22 508.856 769.477C511.246 774.255 513.396 778.795 515.308 783.096C517.219 787.397 518.653 792.175 519.608 797.432C521.998 809.857 521.281 822.042 517.458 833.989C514.113 846.413 507.662 853.82 498.104 856.21C489.981 858.599 483.768 859.077 479.468 857.643C475.645 856.687 472.061 854.537 468.716 851.192C465.848 847.847 462.981 844.024 460.114 839.723C457.247 835.9 453.424 832.077 448.645 828.254C446.256 826.343 444.344 822.042 442.911 815.352C441.955 808.662 439.088 798.388 434.309 784.53C430.486 774.494 428.575 767.565 428.575 763.742C429.053 760.397 429.292 756.574 429.292 752.274C427.858 735.548 425.469 718.584 422.124 701.381C418.779 683.7 415.195 665.78 411.372 647.621C407.549 628.984 403.965 610.347 400.62 591.71C397.752 572.596 395.602 553.003 394.168 532.933C391.779 502.827 389.868 472.244 388.434 441.182C387.478 409.643 386.045 376.67 384.133 342.264C378.877 346.565 374.337 351.821 370.514 358.034C367.169 364.246 364.302 371.414 361.912 379.538C359.523 387.183 357.134 395.307 354.744 403.909C352.833 412.033 350.921 420.395 349.01 428.997C341.364 458.147 334.435 490.642 328.223 526.482C322.011 562.322 316.276 598.162 311.02 634.002C309.108 646.904 306.002 659.567 301.701 671.992C297.4 683.939 295.728 695.646 296.684 707.115C297.161 712.85 299.312 719.301 303.135 726.469C306.958 733.637 308.391 739.849 307.436 745.106C306.002 753.229 302.418 758.964 296.684 762.309C291.427 765.654 285.454 767.326 278.764 767.326C272.073 767.804 265.383 767.087 258.693 765.176C252.003 763.742 246.269 761.592 241.49 758.725C233.366 740.088 225.959 720.018 219.269 698.514C213.057 677.01 206.606 655.506 199.916 634.002C195.615 620.621 192.27 606.763 189.88 592.427C187.969 578.091 185.341 561.844 181.996 543.685C181.04 535.561 178.651 527.198 174.828 518.597C171.483 509.517 169.332 500.438 168.376 491.358C167.421 485.624 167.182 479.89 167.66 474.155C168.137 467.943 168.376 461.97 168.376 456.235C168.376 450.023 167.899 444.05 166.943 438.315C166.465 432.581 164.553 427.085 161.208 421.829C155.952 424.696 152.368 428.519 150.456 433.298C148.545 437.598 147.111 442.377 146.156 447.634C145.678 452.412 145.439 457.43 145.439 462.686C145.439 467.943 144.961 472.961 144.005 477.739C141.616 486.341 138.749 494.942 135.404 503.544C132.059 512.146 129.191 520.747 126.802 529.349C120.112 554.198 113.661 579.286 107.448 604.613C101.714 629.462 94.3071 651.922 85.2276 671.992V707.115C79.4932 712.85 72.8031 716.434 65.1572 717.867C57.5113 719.779 49.8655 719.779 42.2196 717.867C35.0516 716.434 28.3615 713.566 22.1492 709.266C15.9369 704.487 11.3972 698.991 8.53 692.779C35.2905 623.966 57.7503 551.57 75.9092 475.589C94.546 399.608 111.51 321.477 126.802 241.195C130.625 238.806 133.014 234.983 133.97 229.726C134.926 223.992 137.076 219.691 140.421 216.824V188.869C149.501 186.002 157.863 182.418 165.509 178.117C173.155 173.338 182.235 169.993 192.748 168.082C198.96 171.905 203.261 176.683 205.65 182.418C208.039 187.674 209.234 193.409 209.234 199.621C209.234 205.833 208.756 212.284 207.8 218.974C206.845 225.187 206.367 231.399 206.367 237.611C206.367 263.416 208.039 290.177 211.384 317.893C214.729 345.131 218.552 372.609 222.853 400.325C227.154 427.563 231.455 454.563 235.756 481.323C240.534 508.084 244.596 533.411 247.941 557.304C252.72 555.393 256.065 552.764 257.976 549.419C259.888 545.596 261.083 541.773 261.56 537.95C262.038 533.65 262.038 529.349 261.56 525.048C261.083 520.269 261.321 515.969 262.277 512.146C264.189 501.155 266.578 490.403 269.445 479.89C272.79 469.377 276.135 458.147 279.48 446.2C286.171 421.829 292.383 397.935 298.117 374.52C304.329 351.105 310.781 327.45 317.471 303.557C325.595 276.318 333.718 250.991 341.842 227.576C350.444 203.683 360.957 180.506 373.381 158.046C379.116 157.091 385.089 155.179 391.301 152.312C397.513 149.445 403.726 147.055 409.938 145.144C416.15 142.755 422.363 141.56 428.575 141.56C434.787 141.082 440.76 142.994 446.495 147.294ZM984.716 497.81C983.283 503.544 982.566 511.907 982.566 522.898C982.088 523.853 981.849 525.526 981.849 527.915C979.46 536.517 976.593 545.118 973.248 553.72C970.38 561.844 967.274 570.206 963.929 578.808C960.584 587.41 957.717 596.011 955.328 604.613C952.938 613.214 951.744 622.055 951.744 631.134C942.186 645.47 932.629 661.24 923.072 678.443C913.992 695.169 904.196 711.894 893.683 728.619C883.17 745.345 872.179 761.114 860.71 775.928C849.241 791.22 836.578 804.361 822.72 815.352C816.507 820.609 809.1 825.626 800.499 830.405C792.375 835.661 783.534 840.44 773.977 844.741C764.42 849.042 754.385 852.387 743.872 854.776C733.836 857.165 724.279 858.36 715.2 858.36C695.607 857.882 678.165 853.103 662.873 844.024C647.581 834.945 634.679 822.759 624.166 807.467C613.653 792.175 605.529 774.733 599.795 755.141C594.06 736.026 590.715 715.956 589.76 694.93C588.804 673.903 590.237 653.116 594.06 632.568C597.883 612.02 604.096 592.905 612.697 575.224C618.909 561.844 627.989 547.747 639.936 532.933C652.36 517.641 665.74 503.305 680.076 489.925C694.89 476.545 709.943 464.837 725.235 454.802C740.526 444.289 754.385 437.121 766.809 433.298C780.189 429.475 793.331 428.041 806.233 428.997C819.136 429.475 831.799 430.908 844.224 433.298C851.869 439.032 857.843 447.395 862.144 458.386C866.922 468.899 870.028 480.606 871.462 493.509C872.896 505.933 872.896 519.075 871.462 532.933C870.506 546.313 868.117 558.977 864.294 570.923C860.471 582.87 855.214 593.144 848.524 601.746C842.312 610.347 835.144 615.843 827.02 618.232C820.33 620.143 813.162 620.86 805.516 620.382C797.87 619.905 790.702 618.471 784.012 616.082C777.8 613.214 772.305 609.391 767.526 604.613C762.747 599.834 759.641 594.339 758.208 588.126C756.296 577.135 757.013 569.012 760.358 563.755C764.181 558.021 768.721 553.242 773.977 549.419C779.712 545.118 785.207 540.818 790.464 536.517C796.198 531.738 799.782 524.57 801.216 515.013C789.269 508.801 775.65 507.845 760.358 512.146C745.544 516.446 730.969 523.853 716.633 534.366C702.775 544.402 690.589 556.348 680.076 570.206C669.563 584.065 662.873 597.206 660.006 609.63C654.749 633.524 652.838 656.222 654.272 677.726C655.705 699.23 660.245 717.867 667.891 733.637C676.014 749.884 687.244 762.07 701.58 770.194C715.916 778.317 733.358 780.468 753.907 776.645C767.765 774.255 780.428 768.521 791.897 759.442C803.366 750.84 813.64 740.327 822.72 727.902C832.277 715.478 840.878 702.337 848.524 688.478C856.17 674.142 863.338 660.762 870.028 648.338C876.718 635.435 883.648 620.143 890.816 602.462C898.461 584.303 904.913 565.667 910.169 546.552C915.426 527.437 919.01 508.562 920.921 489.925C922.833 470.81 921.399 453.846 916.62 439.032C912.32 423.74 903.957 411.316 891.532 401.758C879.586 392.201 862.382 386.945 839.923 385.989C825.109 385.511 810.534 387.422 796.198 391.723C781.862 396.024 767.287 401.042 752.473 406.776C738.137 412.51 723.562 418.245 708.748 423.979C694.412 429.714 679.598 434.014 664.307 436.882C649.493 439.271 634.201 439.51 618.432 437.598C602.662 435.687 586.414 429.953 569.689 420.395C561.565 407.015 557.026 393.635 556.07 380.254C555.592 366.874 557.026 353.972 560.371 341.547C564.194 329.123 569.689 317.176 576.857 305.707C584.025 294.238 591.671 283.964 599.795 274.885C611.264 261.505 626.077 247.646 644.236 233.31C662.395 218.497 680.554 205.116 698.713 193.17C708.27 186.957 718.545 180.745 729.536 174.533C741.004 167.843 752.234 162.108 763.225 157.33C774.694 152.073 785.924 148.011 796.915 145.144C807.906 142.277 817.941 141.082 827.02 141.56C835.622 142.038 844.94 144.905 854.976 150.162C865.489 154.94 875.046 161.153 883.648 168.798C892.249 176.444 899.417 184.807 905.152 193.886C910.886 202.488 913.514 210.851 913.036 218.974C912.558 223.753 911.125 228.532 908.736 233.31C906.346 237.611 903.24 241.673 899.417 245.496C896.072 248.841 892.488 251.708 888.665 254.098C884.842 256.009 881.497 257.204 878.63 257.682C870.984 258.637 864.294 257.204 858.56 253.381C852.825 249.08 847.33 244.301 842.073 239.045C836.817 233.31 831.321 228.054 825.587 223.275C819.852 218.497 813.162 215.629 805.516 214.674C796.437 213.718 786.641 215.151 776.128 218.974C765.614 222.319 755.101 226.859 744.588 232.594C734.553 237.85 724.996 243.823 715.916 250.514C707.315 256.726 700.147 261.982 694.412 266.283C676.731 279.186 662.395 291.849 651.404 304.274C640.413 316.698 630.378 332.707 621.299 352.299C634.201 360.901 647.342 365.202 660.723 365.202C674.103 364.724 687.722 362.334 701.58 358.034C715.438 353.733 729.058 348.476 742.438 342.264C756.296 335.574 770.154 330.317 784.012 326.494C804.083 320.76 824.87 317.654 846.374 317.176C867.878 316.698 887.948 319.326 906.585 325.061C925.7 330.795 942.425 340.114 956.761 353.016C971.097 365.918 980.893 382.644 986.15 403.192C987.106 407.015 987.823 410.121 988.3 412.51C988.778 414.422 989.017 416.333 989.017 418.245C989.495 419.678 989.734 421.59 989.734 423.979C990.69 430.669 991.168 438.315 991.168 446.917C991.168 455.518 990.212 465.793 988.3 477.739C987.345 481.084 986.628 484.429 986.15 487.774C985.672 490.642 985.194 493.987 984.716 497.81Z"/>
</mask>
<path d="M446.495 147.294C446.017 196.993 446.256 247.646 447.212 299.256C448.645 350.388 451.035 401.281 454.38 451.934C458.203 502.588 463.22 552.047 469.432 600.312C476.123 648.577 484.724 694.452 495.237 737.938C496.193 743.194 498.104 748.451 500.972 753.707C503.839 758.964 506.467 764.22 508.856 769.477C511.246 774.255 513.396 778.795 515.308 783.096C517.219 787.397 518.653 792.175 519.608 797.432C521.998 809.857 521.281 822.042 517.458 833.989C514.113 846.413 507.662 853.82 498.104 856.21C489.981 858.599 483.768 859.077 479.468 857.643C475.645 856.687 472.061 854.537 468.716 851.192C465.848 847.847 462.981 844.024 460.114 839.723C457.247 835.9 453.424 832.077 448.645 828.254C446.256 826.343 444.344 822.042 442.911 815.352C441.955 808.662 439.088 798.388 434.309 784.53C430.486 774.494 428.575 767.565 428.575 763.742C429.053 760.397 429.292 756.574 429.292 752.274C427.858 735.548 425.469 718.584 422.124 701.381C418.779 683.7 415.195 665.78 411.372 647.621C407.549 628.984 403.965 610.347 400.62 591.71C397.752 572.596 395.602 553.003 394.168 532.933C391.779 502.827 389.868 472.244 388.434 441.182C387.478 409.643 386.045 376.67 384.133 342.264C378.877 346.565 374.337 351.821 370.514 358.034C367.169 364.246 364.302 371.414 361.912 379.538C359.523 387.183 357.134 395.307 354.744 403.909C352.833 412.033 350.921 420.395 349.01 428.997C341.364 458.147 334.435 490.642 328.223 526.482C322.011 562.322 316.276 598.162 311.02 634.002C309.108 646.904 306.002 659.567 301.701 671.992C297.4 683.939 295.728 695.646 296.684 707.115C297.161 712.85 299.312 719.301 303.135 726.469C306.958 733.637 308.391 739.849 307.436 745.106C306.002 753.229 302.418 758.964 296.684 762.309C291.427 765.654 285.454 767.326 278.764 767.326C272.073 767.804 265.383 767.087 258.693 765.176C252.003 763.742 246.269 761.592 241.49 758.725C233.366 740.088 225.959 720.018 219.269 698.514C213.057 677.01 206.606 655.506 199.916 634.002C195.615 620.621 192.27 606.763 189.88 592.427C187.969 578.091 185.341 561.844 181.996 543.685C181.04 535.561 178.651 527.198 174.828 518.597C171.483 509.517 169.332 500.438 168.376 491.358C167.421 485.624 167.182 479.89 167.66 474.155C168.137 467.943 168.376 461.97 168.376 456.235C168.376 450.023 167.899 444.05 166.943 438.315C166.465 432.581 164.553 427.085 161.208 421.829C155.952 424.696 152.368 428.519 150.456 433.298C148.545 437.598 147.111 442.377 146.156 447.634C145.678 452.412 145.439 457.43 145.439 462.686C145.439 467.943 144.961 472.961 144.005 477.739C141.616 486.341 138.749 494.942 135.404 503.544C132.059 512.146 129.191 520.747 126.802 529.349C120.112 554.198 113.661 579.286 107.448 604.613C101.714 629.462 94.3071 651.922 85.2276 671.992V707.115C79.4932 712.85 72.8031 716.434 65.1572 717.867C57.5113 719.779 49.8655 719.779 42.2196 717.867C35.0516 716.434 28.3615 713.566 22.1492 709.266C15.9369 704.487 11.3972 698.991 8.53 692.779C35.2905 623.966 57.7503 551.57 75.9092 475.589C94.546 399.608 111.51 321.477 126.802 241.195C130.625 238.806 133.014 234.983 133.97 229.726C134.926 223.992 137.076 219.691 140.421 216.824V188.869C149.501 186.002 157.863 182.418 165.509 178.117C173.155 173.338 182.235 169.993 192.748 168.082C198.96 171.905 203.261 176.683 205.65 182.418C208.039 187.674 209.234 193.409 209.234 199.621C209.234 205.833 208.756 212.284 207.8 218.974C206.845 225.187 206.367 231.399 206.367 237.611C206.367 263.416 208.039 290.177 211.384 317.893C214.729 345.131 218.552 372.609 222.853 400.325C227.154 427.563 231.455 454.563 235.756 481.323C240.534 508.084 244.596 533.411 247.941 557.304C252.72 555.393 256.065 552.764 257.976 549.419C259.888 545.596 261.083 541.773 261.56 537.95C262.038 533.65 262.038 529.349 261.56 525.048C261.083 520.269 261.321 515.969 262.277 512.146C264.189 501.155 266.578 490.403 269.445 479.89C272.79 469.377 276.135 458.147 279.48 446.2C286.171 421.829 292.383 397.935 298.117 374.52C304.329 351.105 310.781 327.45 317.471 303.557C325.595 276.318 333.718 250.991 341.842 227.576C350.444 203.683 360.957 180.506 373.381 158.046C379.116 157.091 385.089 155.179 391.301 152.312C397.513 149.445 403.726 147.055 409.938 145.144C416.15 142.755 422.363 141.56 428.575 141.56C434.787 141.082 440.76 142.994 446.495 147.294ZM984.716 497.81C983.283 503.544 982.566 511.907 982.566 522.898C982.088 523.853 981.849 525.526 981.849 527.915C979.46 536.517 976.593 545.118 973.248 553.72C970.38 561.844 967.274 570.206 963.929 578.808C960.584 587.41 957.717 596.011 955.328 604.613C952.938 613.214 951.744 622.055 951.744 631.134C942.186 645.47 932.629 661.24 923.072 678.443C913.992 695.169 904.196 711.894 893.683 728.619C883.17 745.345 872.179 761.114 860.71 775.928C849.241 791.22 836.578 804.361 822.72 815.352C816.507 820.609 809.1 825.626 800.499 830.405C792.375 835.661 783.534 840.44 773.977 844.741C764.42 849.042 754.385 852.387 743.872 854.776C733.836 857.165 724.279 858.36 715.2 858.36C695.607 857.882 678.165 853.103 662.873 844.024C647.581 834.945 634.679 822.759 624.166 807.467C613.653 792.175 605.529 774.733 599.795 755.141C594.06 736.026 590.715 715.956 589.76 694.93C588.804 673.903 590.237 653.116 594.06 632.568C597.883 612.02 604.096 592.905 612.697 575.224C618.909 561.844 627.989 547.747 639.936 532.933C652.36 517.641 665.74 503.305 680.076 489.925C694.89 476.545 709.943 464.837 725.235 454.802C740.526 444.289 754.385 437.121 766.809 433.298C780.189 429.475 793.331 428.041 806.233 428.997C819.136 429.475 831.799 430.908 844.224 433.298C851.869 439.032 857.843 447.395 862.144 458.386C866.922 468.899 870.028 480.606 871.462 493.509C872.896 505.933 872.896 519.075 871.462 532.933C870.506 546.313 868.117 558.977 864.294 570.923C860.471 582.87 855.214 593.144 848.524 601.746C842.312 610.347 835.144 615.843 827.02 618.232C820.33 620.143 813.162 620.86 805.516 620.382C797.87 619.905 790.702 618.471 784.012 616.082C777.8 613.214 772.305 609.391 767.526 604.613C762.747 599.834 759.641 594.339 758.208 588.126C756.296 577.135 757.013 569.012 760.358 563.755C764.181 558.021 768.721 553.242 773.977 549.419C779.712 545.118 785.207 540.818 790.464 536.517C796.198 531.738 799.782 524.57 801.216 515.013C789.269 508.801 775.65 507.845 760.358 512.146C745.544 516.446 730.969 523.853 716.633 534.366C702.775 544.402 690.589 556.348 680.076 570.206C669.563 584.065 662.873 597.206 660.006 609.63C654.749 633.524 652.838 656.222 654.272 677.726C655.705 699.23 660.245 717.867 667.891 733.637C676.014 749.884 687.244 762.07 701.58 770.194C715.916 778.317 733.358 780.468 753.907 776.645C767.765 774.255 780.428 768.521 791.897 759.442C803.366 750.84 813.64 740.327 822.72 727.902C832.277 715.478 840.878 702.337 848.524 688.478C856.17 674.142 863.338 660.762 870.028 648.338C876.718 635.435 883.648 620.143 890.816 602.462C898.461 584.303 904.913 565.667 910.169 546.552C915.426 527.437 919.01 508.562 920.921 489.925C922.833 470.81 921.399 453.846 916.62 439.032C912.32 423.74 903.957 411.316 891.532 401.758C879.586 392.201 862.382 386.945 839.923 385.989C825.109 385.511 810.534 387.422 796.198 391.723C781.862 396.024 767.287 401.042 752.473 406.776C738.137 412.51 723.562 418.245 708.748 423.979C694.412 429.714 679.598 434.014 664.307 436.882C649.493 439.271 634.201 439.51 618.432 437.598C602.662 435.687 586.414 429.953 569.689 420.395C561.565 407.015 557.026 393.635 556.07 380.254C555.592 366.874 557.026 353.972 560.371 341.547C564.194 329.123 569.689 317.176 576.857 305.707C584.025 294.238 591.671 283.964 599.795 274.885C611.264 261.505 626.077 247.646 644.236 233.31C662.395 218.497 680.554 205.116 698.713 193.17C708.27 186.957 718.545 180.745 729.536 174.533C741.004 167.843 752.234 162.108 763.225 157.33C774.694 152.073 785.924 148.011 796.915 145.144C807.906 142.277 817.941 141.082 827.02 141.56C835.622 142.038 844.94 144.905 854.976 150.162C865.489 154.94 875.046 161.153 883.648 168.798C892.249 176.444 899.417 184.807 905.152 193.886C910.886 202.488 913.514 210.851 913.036 218.974C912.558 223.753 911.125 228.532 908.736 233.31C906.346 237.611 903.24 241.673 899.417 245.496C896.072 248.841 892.488 251.708 888.665 254.098C884.842 256.009 881.497 257.204 878.63 257.682C870.984 258.637 864.294 257.204 858.56 253.381C852.825 249.08 847.33 244.301 842.073 239.045C836.817 233.31 831.321 228.054 825.587 223.275C819.852 218.497 813.162 215.629 805.516 214.674C796.437 213.718 786.641 215.151 776.128 218.974C765.614 222.319 755.101 226.859 744.588 232.594C734.553 237.85 724.996 243.823 715.916 250.514C707.315 256.726 700.147 261.982 694.412 266.283C676.731 279.186 662.395 291.849 651.404 304.274C640.413 316.698 630.378 332.707 621.299 352.299C634.201 360.901 647.342 365.202 660.723 365.202C674.103 364.724 687.722 362.334 701.58 358.034C715.438 353.733 729.058 348.476 742.438 342.264C756.296 335.574 770.154 330.317 784.012 326.494C804.083 320.76 824.87 317.654 846.374 317.176C867.878 316.698 887.948 319.326 906.585 325.061C925.7 330.795 942.425 340.114 956.761 353.016C971.097 365.918 980.893 382.644 986.15 403.192C987.106 407.015 987.823 410.121 988.3 412.51C988.778 414.422 989.017 416.333 989.017 418.245C989.495 419.678 989.734 421.59 989.734 423.979C990.69 430.669 991.168 438.315 991.168 446.917C991.168 455.518 990.212 465.793 988.3 477.739C987.345 481.084 986.628 484.429 986.15 487.774C985.672 490.642 985.194 493.987 984.716 497.81Z" fill="black"/>
<path d="M446.495 147.294L452.095 147.348L452.122 144.515L449.855 142.814L446.495 147.294ZM447.212 299.256L441.613 299.36L441.613 299.386L441.614 299.413L447.212 299.256ZM454.38 451.934L448.792 452.303L448.794 452.33L448.795 452.356L454.38 451.934ZM469.432 600.312L463.878 601.027L463.882 601.054L463.885 601.081L469.432 600.312ZM495.237 737.938L500.747 736.936L500.718 736.778L500.68 736.622L495.237 737.938ZM500.972 753.707L505.888 751.026L505.888 751.026L500.972 753.707ZM508.856 769.477L503.758 771.794L503.801 771.888L503.848 771.981L508.856 769.477ZM515.308 783.096L510.19 785.37L510.19 785.37L515.308 783.096ZM519.608 797.432L514.099 798.434L514.104 798.462L514.109 798.49L519.608 797.432ZM517.458 833.989L512.124 832.282L512.085 832.407L512.051 832.533L517.458 833.989ZM498.104 856.21L496.746 850.777L496.635 850.805L496.524 850.837L498.104 856.21ZM479.468 857.643L481.238 852.331L481.034 852.263L480.826 852.21L479.468 857.643ZM468.716 851.192L464.464 854.836L464.604 855L464.756 855.152L468.716 851.192ZM460.114 839.723L464.774 836.617L464.687 836.488L464.594 836.363L460.114 839.723ZM448.645 828.254L452.144 823.882L452.143 823.882L448.645 828.254ZM442.911 815.352L437.367 816.144L437.394 816.336L437.435 816.525L442.911 815.352ZM434.309 784.53L439.603 782.704L439.574 782.62L439.542 782.536L434.309 784.53ZM428.575 763.742L423.031 762.95L422.975 763.344V763.742H428.575ZM429.292 752.274H434.892V752.034L434.871 751.795L429.292 752.274ZM422.124 701.381L416.621 702.422L416.624 702.436L416.627 702.45L422.124 701.381ZM411.372 647.621L405.886 648.746L405.889 648.76L405.892 648.774L411.372 647.621ZM400.62 591.71L395.082 592.541L395.094 592.621L395.108 592.7L400.62 591.71ZM394.168 532.933L399.754 532.534L399.753 532.512L399.751 532.49L394.168 532.933ZM388.434 441.182L382.837 441.352L382.838 441.396L382.84 441.441L388.434 441.182ZM384.133 342.264L389.725 341.953L389.114 330.954L380.587 337.93L384.133 342.264ZM370.514 358.034L365.745 355.099L365.66 355.236L365.583 355.379L370.514 358.034ZM361.912 379.538L367.258 381.208L367.272 381.163L367.285 381.118L361.912 379.538ZM354.744 403.909L349.349 402.41L349.319 402.518L349.293 402.626L354.744 403.909ZM349.01 428.997L354.427 430.418L354.454 430.315L354.477 430.212L349.01 428.997ZM328.223 526.482L322.705 525.525L322.705 525.525L328.223 526.482ZM311.02 634.002L316.559 634.822L316.56 634.814L311.02 634.002ZM301.701 671.992L306.97 673.889L306.982 673.856L306.993 673.824L301.701 671.992ZM296.684 707.115L291.103 707.58L291.103 707.58L296.684 707.115ZM303.135 726.469L298.194 729.104L298.194 729.104L303.135 726.469ZM307.436 745.106L301.926 744.104L301.923 744.118L301.921 744.132L307.436 745.106ZM296.684 762.309L293.862 757.472L293.768 757.526L293.677 757.584L296.684 762.309ZM278.764 767.326V761.726H278.564L278.365 761.741L278.764 767.326ZM258.693 765.176L260.232 759.791L260.051 759.74L259.867 759.7L258.693 765.176ZM241.49 758.725L236.357 760.962L237.072 762.605L238.609 763.527L241.49 758.725ZM219.269 698.514L213.889 700.068L213.905 700.123L213.922 700.177L219.269 698.514ZM199.916 634.002L205.263 632.338L205.255 632.313L205.247 632.288L199.916 634.002ZM189.88 592.427L184.33 593.167L184.342 593.258L184.357 593.348L189.88 592.427ZM181.996 543.685L176.434 544.339L176.455 544.52L176.488 544.699L181.996 543.685ZM174.828 518.597L169.573 520.533L169.636 520.704L169.71 520.871L174.828 518.597ZM168.376 491.358L173.946 490.772L173.928 490.604L173.9 490.438L168.376 491.358ZM167.66 474.155L173.24 474.62L173.242 474.602L173.243 474.585L167.66 474.155ZM166.943 438.315L161.362 438.78L161.381 439.009L161.419 439.236L166.943 438.315ZM161.208 421.829L165.933 418.822L163.122 414.406L158.527 416.913L161.208 421.829ZM150.456 433.298L155.574 435.572L155.617 435.475L155.656 435.377L150.456 433.298ZM146.156 447.634L140.646 446.632L140.606 446.853L140.583 447.076L146.156 447.634ZM144.005 477.739L149.401 479.238L149.456 479.039L149.496 478.837L144.005 477.739ZM135.404 503.544L130.184 501.514L130.184 501.514L135.404 503.544ZM126.802 529.349L121.406 527.85L121.4 527.871L121.395 527.893L126.802 529.349ZM107.448 604.613L102.01 603.279L102 603.316L101.992 603.354L107.448 604.613ZM85.2276 671.992L80.1254 669.684L79.6276 670.784V671.992H85.2276ZM85.2276 707.115L89.1874 711.075L90.8276 709.435V707.115H85.2276ZM65.1572 717.867L64.1252 712.363L63.961 712.394L63.799 712.434L65.1572 717.867ZM42.2196 717.867L43.5778 712.434L43.4485 712.402L43.3179 712.376L42.2196 717.867ZM22.1492 709.266L18.7348 713.704L18.8461 713.79L18.9616 713.87L22.1492 709.266ZM8.53 692.779L3.31077 690.75L2.44868 692.966L3.44543 695.126L8.53 692.779ZM75.9092 475.589L70.4704 474.255L70.4665 474.271L70.4626 474.287L75.9092 475.589ZM126.802 241.195L123.834 236.446L121.759 237.743L121.301 240.147L126.802 241.195ZM133.97 229.726L139.48 230.728L139.487 230.688L139.494 230.647L133.97 229.726ZM140.421 216.824L144.066 221.076L146.021 219.4V216.824H140.421ZM140.421 188.869L138.735 183.529L134.821 184.765V188.869H140.421ZM165.509 178.117L168.255 182.998L168.367 182.934L168.477 182.866L165.509 178.117ZM192.748 168.082L195.683 163.312L193.856 162.188L191.746 162.572L192.748 168.082ZM205.65 182.418L200.481 184.571L200.515 184.654L200.552 184.735L205.65 182.418ZM207.8 218.974L213.335 219.826L213.34 219.796L213.344 219.766L207.8 218.974ZM211.384 317.893L205.825 318.564L205.826 318.575L211.384 317.893ZM222.853 400.325L217.319 401.183L217.321 401.191L217.322 401.198L222.853 400.325ZM235.756 481.323L230.227 482.212L230.234 482.26L230.243 482.308L235.756 481.323ZM247.941 557.304L242.395 558.08L243.386 565.157L250.021 562.503L247.941 557.304ZM257.976 549.419L262.839 552.198L262.916 552.063L262.985 551.924L257.976 549.419ZM261.56 537.95L267.117 538.645L267.122 538.607L267.126 538.569L261.56 537.95ZM261.56 525.048L255.988 525.605L255.991 525.636L255.995 525.666L261.56 525.048ZM262.277 512.146L267.71 513.504L267.759 513.306L267.794 513.105L262.277 512.146ZM269.445 479.89L264.109 478.192L264.073 478.303L264.043 478.416L269.445 479.89ZM279.48 446.2L284.873 447.71L284.877 447.696L284.881 447.682L279.48 446.2ZM298.117 374.52L292.704 373.084L292.691 373.136L292.678 373.188L298.117 374.52ZM317.471 303.557L312.104 301.956L312.091 302.001L312.078 302.047L317.471 303.557ZM341.842 227.576L336.573 225.679L336.562 225.71L336.551 225.74L341.842 227.576ZM373.381 158.046L372.461 152.523L369.791 152.968L368.481 155.336L373.381 158.046ZM409.938 145.144L411.585 150.496L411.769 150.44L411.948 150.371L409.938 145.144ZM428.575 141.56V147.16H428.79L429.004 147.144L428.575 141.56ZM440.895 147.241C440.417 196.993 440.656 247.7 441.613 299.36L452.811 299.152C451.856 247.593 451.617 196.992 452.095 147.348L440.895 147.241ZM441.614 299.413C443.049 350.615 445.442 401.578 448.792 452.303L459.967 451.565C456.627 400.983 454.241 350.161 452.809 299.099L441.614 299.413ZM448.795 452.356C452.626 503.104 457.653 552.661 463.878 601.027L474.987 599.597C468.787 551.434 463.78 502.073 459.964 451.513L448.795 452.356ZM463.885 601.081C470.599 649.513 479.234 695.572 489.794 739.254L500.68 736.622C490.215 693.331 481.646 647.64 474.979 599.543L463.885 601.081ZM489.728 738.939C490.802 744.85 492.936 750.67 496.055 756.389L505.888 751.026C503.273 746.231 501.584 741.538 500.747 736.936L489.728 738.939ZM496.055 756.389C498.86 761.53 501.427 766.666 503.758 771.794L513.954 767.16C511.507 761.775 508.818 756.397 505.888 751.026L496.055 756.389ZM503.848 771.981C506.204 776.694 508.317 781.157 510.19 785.37L520.425 780.822C518.475 776.434 516.287 771.817 513.865 766.972L503.848 771.981ZM510.19 785.37C511.898 789.214 513.212 793.558 514.099 798.434L525.118 796.43C524.093 790.793 522.54 785.58 520.425 780.822L510.19 785.37ZM514.109 798.49C516.323 810.002 515.659 821.236 512.124 832.282L522.792 835.696C526.903 822.848 527.672 809.711 525.108 796.374L514.109 798.49ZM512.051 832.533C509.047 843.689 503.722 849.033 496.746 850.777L499.463 861.642C511.602 858.608 519.179 849.138 522.865 835.445L512.051 832.533ZM496.524 850.837C488.681 853.144 483.859 853.204 481.238 852.331L477.697 862.956C483.678 864.949 491.28 864.054 499.685 861.582L496.524 850.837ZM480.826 852.21C478.169 851.546 475.447 850.004 472.675 847.232L464.756 855.152C468.674 859.07 473.121 861.829 478.109 863.076L480.826 852.21ZM472.967 847.548C470.269 844.4 467.537 840.761 464.774 836.617L455.455 842.83C458.426 847.287 461.427 851.294 464.464 854.836L472.967 847.548ZM464.594 836.363C461.377 832.074 457.193 827.921 452.144 823.882L445.147 832.627C449.654 836.233 453.116 839.726 455.634 843.083L464.594 836.363ZM452.143 823.882C451.925 823.707 451.307 823.053 450.537 821.321C449.792 819.644 449.055 817.299 448.386 814.179L437.435 816.525C438.2 820.095 439.136 823.246 440.302 825.87C441.444 828.438 442.976 830.89 445.147 832.627L452.143 823.882ZM448.455 814.56C447.418 807.305 444.396 796.603 439.603 782.704L429.015 786.355C433.78 800.173 436.492 810.018 437.367 816.144L448.455 814.56ZM439.542 782.536C437.666 777.612 436.299 773.55 435.407 770.317C434.489 766.992 434.175 764.887 434.175 763.742H422.975C422.975 766.421 423.616 769.692 424.61 773.296C425.63 776.992 427.129 781.412 429.076 786.523L439.542 782.536ZM434.119 764.534C434.642 760.868 434.892 756.772 434.892 752.274H423.692C423.692 756.377 423.463 759.927 423.031 762.95L434.119 764.534ZM434.871 751.795C433.42 734.863 431.002 717.702 427.621 700.312L416.627 702.45C419.935 719.466 422.296 736.233 423.712 752.752L434.871 751.795ZM427.626 700.34C424.274 682.62 420.682 664.662 416.851 646.467L405.892 648.774C409.707 666.897 413.283 684.78 416.621 702.422L427.626 700.34ZM416.857 646.496C413.044 627.904 409.468 609.312 406.132 590.721L395.108 592.7C398.461 611.382 402.054 630.064 405.886 648.746L416.857 646.496ZM406.158 590.88C403.313 571.914 401.178 552.466 399.754 532.534L388.583 533.332C390.026 553.541 392.192 573.277 395.082 592.541L406.158 590.88ZM399.751 532.49C397.367 502.447 395.459 471.926 394.028 440.924L382.84 441.441C384.276 472.562 386.192 503.207 388.586 533.376L399.751 532.49ZM394.031 441.013C393.074 409.422 391.638 376.403 389.725 341.953L378.542 342.575C380.451 376.938 381.882 409.864 382.837 441.352L394.031 441.013ZM380.587 337.93C374.813 342.654 369.87 348.394 365.745 355.099L375.283 360.969C378.804 355.248 382.94 350.476 387.679 346.598L380.587 337.93ZM365.583 355.379C362.022 361.993 359.018 369.533 356.54 377.957L367.285 381.118C369.586 373.295 372.316 366.499 375.445 360.689L365.583 355.379ZM356.567 377.867C354.158 385.576 351.752 393.757 349.349 402.41L360.14 405.408C362.515 396.857 364.888 388.791 367.258 381.208L356.567 377.867ZM349.293 402.626C347.376 410.774 345.46 419.159 343.543 427.782L354.477 430.212C356.383 421.631 358.29 413.291 360.196 405.191L349.293 402.626ZM343.593 427.576C335.9 456.907 328.939 489.56 322.705 525.525L333.741 527.438C339.931 491.723 346.828 459.387 354.427 430.418L343.593 427.576ZM322.705 525.525C316.485 561.413 310.742 597.301 305.479 633.189L316.56 634.814C321.81 599.022 327.537 563.23 333.741 527.438L322.705 525.525ZM305.48 633.181C303.62 645.737 300.597 658.062 296.409 670.16L306.993 673.824C311.407 661.073 314.596 648.071 316.559 634.822L305.48 633.181ZM296.432 670.095C291.888 682.719 290.074 695.232 291.103 707.58L302.264 706.65C301.382 696.061 302.913 685.158 306.97 673.889L296.432 670.095ZM291.103 707.58C291.664 714.319 294.149 721.521 298.194 729.104L308.076 723.834C304.475 717.081 302.658 711.381 302.264 706.65L291.103 707.58ZM298.194 729.104C301.717 735.71 302.565 740.589 301.926 744.104L312.945 746.107C314.218 739.109 312.199 731.564 308.076 723.834L298.194 729.104ZM301.921 744.132C300.698 751.063 297.838 755.153 293.862 757.472L299.505 767.146C306.998 762.775 311.306 755.396 312.95 746.079L301.921 744.132ZM293.677 757.584C289.386 760.315 284.471 761.726 278.764 761.726V772.926C286.437 772.926 293.468 770.993 299.69 767.033L293.677 757.584ZM278.365 761.741C272.351 762.17 266.317 761.53 260.232 759.791L257.155 770.561C264.45 772.645 271.796 773.438 279.163 772.912L278.365 761.741ZM259.867 759.7C253.647 758.367 248.517 756.41 244.371 753.923L238.609 763.527C244.02 766.774 250.359 769.117 257.52 770.652L259.867 759.7ZM246.624 756.487C238.59 738.056 231.252 718.179 224.616 696.85L213.922 700.177C220.666 721.856 228.143 742.12 236.357 760.962L246.624 756.487ZM224.649 696.959C218.426 675.419 211.964 653.878 205.263 632.338L194.568 635.665C201.247 657.133 207.688 678.601 213.889 700.068L224.649 696.959ZM205.247 632.288C201.032 619.176 197.75 605.583 195.404 591.507L184.357 593.348C186.789 607.943 190.197 622.067 194.584 635.715L205.247 632.288ZM195.431 591.687C193.505 577.238 190.86 560.897 187.503 542.67L176.488 544.699C179.821 562.791 182.433 578.944 184.33 593.167L195.431 591.687ZM187.557 543.03C186.527 534.271 183.963 525.363 179.945 516.322L169.71 520.871C173.338 529.034 175.553 536.852 176.434 544.339L187.557 543.03ZM180.082 516.661C176.888 507.991 174.85 499.364 173.946 490.772L162.807 491.945C163.814 501.512 166.077 511.044 169.573 520.533L180.082 516.661ZM173.9 490.438C173.02 485.156 172.801 479.887 173.24 474.62L162.079 473.69C161.562 479.892 161.821 486.092 162.853 492.279L173.9 490.438ZM173.243 474.585C173.731 468.242 173.976 462.125 173.976 456.235H162.776C162.776 461.815 162.544 467.644 162.076 473.726L173.243 474.585ZM173.976 456.235C173.976 449.735 173.476 443.453 172.467 437.395L161.419 439.236C162.321 444.646 162.776 450.31 162.776 456.235H173.976ZM172.523 437.85C171.964 431.138 169.724 424.779 165.933 418.822L156.484 424.835C159.383 429.391 160.966 434.023 161.362 438.78L172.523 437.85ZM158.527 416.913C152.323 420.296 147.729 425.037 145.257 431.218L155.656 435.377C157.006 432.001 159.581 429.096 163.89 426.745L158.527 416.913ZM145.339 431.023C143.224 435.782 141.671 440.995 140.646 446.632L151.665 448.635C152.552 443.759 153.866 439.415 155.574 435.572L145.339 431.023ZM140.583 447.076C140.085 452.057 139.839 457.261 139.839 462.686H151.039C151.039 457.599 151.27 452.768 151.728 448.191L140.583 447.076ZM139.839 462.686C139.839 467.603 139.392 472.251 138.514 476.641L149.496 478.837C150.53 473.67 151.039 468.283 151.039 462.686H139.839ZM138.61 476.24C136.272 484.656 133.464 493.081 130.184 501.514L140.623 505.574C144.033 496.804 146.96 488.025 149.401 479.238L138.61 476.24ZM130.184 501.514C126.774 510.284 123.847 519.063 121.406 527.85L132.198 530.848C134.535 522.432 137.343 514.007 140.623 505.574L130.184 501.514ZM121.395 527.893C114.693 552.783 108.232 577.912 102.01 603.279L112.887 605.947C119.09 580.66 125.53 555.613 132.209 530.805L121.395 527.893ZM101.992 603.354C96.3279 627.897 89.0307 649.998 80.1254 669.684L90.3298 674.3C99.5834 653.845 107.1 631.027 112.905 605.872L101.992 603.354ZM79.6276 671.992V707.115H90.8276V671.992H79.6276ZM81.2678 703.155C76.2955 708.128 70.6129 711.147 64.1252 712.363L66.1892 723.371C74.9933 721.721 82.6909 717.571 89.1874 711.075L81.2678 703.155ZM63.799 712.434C57.0449 714.123 50.3319 714.123 43.5778 712.434L40.8614 723.3C49.399 725.434 57.9778 725.434 66.5154 723.3L63.799 712.434ZM43.3179 712.376C36.9249 711.097 30.9421 708.542 25.3368 704.661L18.9616 713.87C25.7809 718.591 33.1783 721.77 41.1213 723.358L43.3179 712.376ZM25.5636 704.827C19.9638 700.519 16.0504 695.71 13.6146 690.432L3.44543 695.126C6.74401 702.273 11.9101 708.454 18.7348 713.704L25.5636 704.827ZM13.7492 694.809C40.6072 625.746 63.1411 553.105 81.3558 476.89L70.4626 474.287C52.3594 550.035 29.9739 622.187 3.31077 690.75L13.7492 694.809ZM81.348 476.923C100.009 400.843 116.994 322.616 132.303 242.243L121.301 240.147C106.027 320.337 89.0829 398.373 70.4704 474.255L81.348 476.923ZM129.77 245.944C135.178 242.564 138.299 237.223 139.48 230.728L128.46 228.725C127.73 232.743 126.072 235.048 123.834 236.446L129.77 245.944ZM139.494 230.647C140.303 225.79 141.999 222.847 144.066 221.076L136.777 212.572C132.153 216.535 129.548 222.194 128.446 228.806L139.494 230.647ZM146.021 216.824V188.869H134.821V216.824H146.021ZM142.108 194.209C151.524 191.235 160.245 187.503 168.255 182.998L162.764 173.236C155.481 177.332 147.477 180.768 138.735 183.529L142.108 194.209ZM168.477 182.866C175.422 178.525 183.807 175.399 193.749 173.591L191.746 162.572C180.662 164.587 170.889 168.151 162.541 173.368L168.477 182.866ZM189.813 172.851C195.204 176.169 198.618 180.101 200.481 184.571L210.819 180.264C207.903 173.265 202.716 167.641 195.683 163.312L189.813 172.851ZM200.552 184.735C202.586 189.21 203.634 194.146 203.634 199.621H214.834C214.834 192.671 213.493 186.139 210.748 180.1L200.552 184.735ZM203.634 199.621C203.634 205.546 203.178 211.732 202.257 218.182L213.344 219.766C214.334 212.837 214.834 206.12 214.834 199.621H203.634ZM202.266 218.123C201.267 224.614 200.767 231.111 200.767 237.611H211.967C211.967 231.687 212.422 225.76 213.335 219.826L202.266 218.123ZM200.767 237.611C200.767 263.658 202.455 290.643 205.825 318.564L216.944 317.222C213.624 289.71 211.967 263.174 211.967 237.611H200.767ZM205.826 318.575C209.179 345.874 213.01 373.41 217.319 401.183L228.387 399.466C224.095 371.807 220.28 344.389 216.943 317.21L205.826 318.575ZM217.322 401.198C221.623 428.442 225.925 455.446 230.227 482.212L241.285 480.435C236.985 453.679 232.685 426.685 228.385 399.451L217.322 401.198ZM230.243 482.308C235.011 509.008 239.061 534.265 242.395 558.08L253.487 556.528C250.131 532.557 246.058 507.16 241.268 480.339L230.243 482.308ZM250.021 562.503C255.58 560.28 260.117 556.96 262.839 552.198L253.114 546.641C252.013 548.569 249.86 550.505 245.861 552.105L250.021 562.503ZM262.985 551.924C265.15 547.595 266.552 543.163 267.117 538.645L256.004 537.256C255.613 540.384 254.626 543.598 252.968 546.915L262.985 551.924ZM267.126 538.569C267.65 533.857 267.65 529.141 267.126 524.43L255.995 525.666C256.427 529.556 256.427 533.442 255.995 537.332L267.126 538.569ZM267.133 524.491C266.705 520.218 266.941 516.581 267.71 513.504L256.844 510.787C255.702 515.356 255.46 520.321 255.988 525.605L267.133 524.491ZM267.794 513.105C269.676 502.283 272.028 491.703 274.848 481.363L264.043 478.416C261.128 489.103 258.701 500.026 256.76 511.186L267.794 513.105ZM274.782 481.588C278.149 471.005 281.512 459.712 284.873 447.71L274.088 444.69C270.758 456.581 267.432 467.748 264.109 478.192L274.782 481.588ZM284.881 447.682C291.584 423.264 297.809 399.32 303.556 375.852L292.678 373.188C286.956 396.551 280.757 420.394 274.08 444.718L284.881 447.682ZM303.53 375.956C309.736 352.566 316.18 328.936 322.863 305.067L312.078 302.047C305.381 325.964 298.923 349.643 292.704 373.084L303.53 375.956ZM322.837 305.157C330.941 277.987 339.039 252.739 347.133 229.412L336.551 225.74C328.397 249.244 320.248 274.65 312.104 301.956L322.837 305.157ZM347.111 229.473C355.61 205.863 366 182.959 378.281 160.757L368.481 155.336C355.914 178.054 345.277 201.502 336.573 225.679L347.111 229.473ZM374.302 163.57C380.607 162.519 387.06 160.437 393.648 157.397L388.955 147.227C383.118 149.921 377.624 151.662 372.461 152.523L374.302 163.57ZM393.648 157.397C399.645 154.629 405.624 152.331 411.585 150.496L408.291 139.792C401.828 141.78 395.382 144.261 388.955 147.227L393.648 157.397ZM411.948 150.371C417.565 148.21 423.098 147.16 428.575 147.16V135.96C421.627 135.96 414.735 137.299 407.928 139.917L411.948 150.371ZM429.004 147.144C433.659 146.785 438.314 148.159 443.135 151.774L449.855 142.814C443.207 137.829 435.915 135.379 428.145 135.976L429.004 147.144ZM984.716 497.81L990.149 499.168L990.231 498.84L990.273 498.504L984.716 497.81ZM982.566 522.898L987.575 525.402L988.166 524.22V522.898H982.566ZM981.849 527.915L987.245 529.414L987.449 528.679V527.915H981.849ZM973.248 553.72L968.028 551.69L967.996 551.773L967.967 551.856L973.248 553.72ZM963.929 578.808L958.71 576.778L958.71 576.778L963.929 578.808ZM955.328 604.613L949.932 603.114L949.932 603.114L955.328 604.613ZM951.744 631.134L956.403 634.241L957.344 632.83V631.134H951.744ZM923.072 678.443L918.176 675.724L918.163 675.747L918.15 675.771L923.072 678.443ZM893.683 728.619L888.942 725.639L888.942 725.639L893.683 728.619ZM860.71 775.928L856.282 772.5L856.256 772.534L856.23 772.568L860.71 775.928ZM822.72 815.352L819.24 810.964L819.17 811.02L819.102 811.077L822.72 815.352ZM800.499 830.405L797.779 825.51L797.615 825.601L797.457 825.703L800.499 830.405ZM773.977 844.741L776.275 849.848L776.275 849.848L773.977 844.741ZM743.872 854.776L742.63 849.315L742.602 849.322L742.574 849.328L743.872 854.776ZM715.2 858.36L715.063 863.958L715.131 863.96H715.2V858.36ZM662.873 844.024L665.732 839.209L665.732 839.209L662.873 844.024ZM599.795 755.141L605.169 753.568L605.164 753.55L605.159 753.532L599.795 755.141ZM589.76 694.93L584.165 695.184L589.76 694.93ZM594.06 632.568L599.566 633.592L599.566 633.592L594.06 632.568ZM612.697 575.224L617.733 577.674L617.755 577.628L617.776 577.582L612.697 575.224ZM639.936 532.933L635.589 529.401L635.583 529.409L635.576 529.417L639.936 532.933ZM680.076 489.925L676.323 485.769L676.289 485.8L676.255 485.831L680.076 489.925ZM725.235 454.802L728.307 459.483L728.358 459.45L728.407 459.416L725.235 454.802ZM766.809 433.298L765.271 427.913L765.216 427.929L765.162 427.945L766.809 433.298ZM806.233 428.997L805.819 434.581L805.923 434.589L806.026 434.593L806.233 428.997ZM844.224 433.298L847.584 428.818L846.55 428.042L845.281 427.798L844.224 433.298ZM862.144 458.386L856.929 460.426L856.983 460.566L857.046 460.703L862.144 458.386ZM871.462 493.509L865.896 494.127L865.898 494.139L865.899 494.151L871.462 493.509ZM871.462 532.933L865.892 532.357L865.883 532.445L865.876 532.534L871.462 532.933ZM864.294 570.923L858.96 569.216L858.96 569.216L864.294 570.923ZM848.524 601.746L844.104 598.308L844.043 598.386L843.985 598.467L848.524 601.746ZM827.02 618.232L828.559 623.617L828.58 623.611L828.6 623.604L827.02 618.232ZM805.516 620.382L805.167 625.971L805.167 625.971L805.516 620.382ZM784.012 616.082L781.666 621.166L781.893 621.271L782.129 621.355L784.012 616.082ZM767.526 604.613L771.486 600.653L771.486 600.653L767.526 604.613ZM758.208 588.126L752.69 589.086L752.717 589.237L752.751 589.386L758.208 588.126ZM760.358 563.755L755.698 560.649L755.665 560.698L755.633 560.749L760.358 563.755ZM773.977 549.419L777.271 553.948L777.304 553.924L777.337 553.899L773.977 549.419ZM790.464 536.517L794.01 540.851L794.029 540.835L794.049 540.819L790.464 536.517ZM801.216 515.013L806.754 515.843L807.347 511.889L803.799 510.044L801.216 515.013ZM760.358 512.146L758.842 506.755L758.819 506.761L758.797 506.768L760.358 512.146ZM716.633 534.366L719.918 538.902L719.931 538.892L719.945 538.882L716.633 534.366ZM680.076 570.206L675.615 566.822L680.076 570.206ZM660.006 609.63L654.549 608.371L654.543 608.399L654.537 608.427L660.006 609.63ZM654.272 677.726L659.859 677.354L659.859 677.354L654.272 677.726ZM667.891 733.637L662.852 736.08L662.867 736.111L662.882 736.141L667.891 733.637ZM701.58 770.194L698.819 775.066L698.819 775.066L701.58 770.194ZM753.907 776.645L752.955 771.126L752.919 771.133L752.882 771.139L753.907 776.645ZM791.897 759.442L788.537 754.962L788.479 755.006L788.421 755.051L791.897 759.442ZM822.72 727.902L818.281 724.488L818.239 724.543L818.198 724.598L822.72 727.902ZM848.524 688.478L853.428 691.184L853.447 691.149L853.466 691.114L848.524 688.478ZM870.028 648.338L874.959 650.993L874.98 650.954L875 650.915L870.028 648.338ZM890.816 602.462L885.654 600.289L885.64 600.324L885.626 600.358L890.816 602.462ZM910.169 546.552L915.569 548.037L915.569 548.037L910.169 546.552ZM920.921 489.925L926.492 490.496L926.493 490.489L926.493 490.482L920.921 489.925ZM916.62 439.032L911.23 440.548L911.258 440.65L911.291 440.751L916.62 439.032ZM891.532 401.758L888.034 406.131L888.076 406.165L888.118 406.197L891.532 401.758ZM839.923 385.989L840.161 380.394L840.132 380.393L840.103 380.392L839.923 385.989ZM796.198 391.723L794.589 386.359L794.589 386.359L796.198 391.723ZM752.473 406.776L750.452 401.554L750.422 401.565L750.393 401.577L752.473 406.776ZM708.748 423.979L706.727 418.757L706.698 418.768L706.669 418.78L708.748 423.979ZM664.307 436.882L665.198 442.41L665.269 442.399L665.339 442.386L664.307 436.882ZM618.432 437.598L619.105 432.039L618.432 437.598ZM569.689 420.395L564.902 423.301L565.654 424.539L566.911 425.257L569.689 420.395ZM556.07 380.254L550.474 380.454L550.477 380.554L550.484 380.653L556.07 380.254ZM560.371 341.547L555.018 339.9L554.989 339.995L554.963 340.091L560.371 341.547ZM576.857 305.707L572.108 302.739L572.108 302.739L576.857 305.707ZM599.795 274.885L603.968 278.619L604.008 278.574L604.047 278.529L599.795 274.885ZM644.236 233.31L647.706 237.706L647.742 237.678L647.776 237.65L644.236 233.31ZM698.713 193.17L695.661 188.474L695.648 188.483L695.635 188.491L698.713 193.17ZM729.536 174.533L732.291 179.408L732.324 179.389L732.357 179.37L729.536 174.533ZM763.225 157.33L765.458 162.465L765.508 162.443L765.558 162.42L763.225 157.33ZM796.915 145.144L798.328 150.563L798.328 150.563L796.915 145.144ZM827.02 141.56L827.331 135.969L827.323 135.968L827.315 135.968L827.02 141.56ZM854.976 150.162L852.377 155.122L852.516 155.195L852.658 155.26L854.976 150.162ZM883.648 168.798L879.927 172.984L879.927 172.984L883.648 168.798ZM905.152 193.886L900.417 196.877L900.454 196.935L900.492 196.993L905.152 193.886ZM913.036 218.974L918.609 219.532L918.62 219.418L918.627 219.303L913.036 218.974ZM908.736 233.31L913.631 236.03L913.69 235.924L913.744 235.815L908.736 233.31ZM899.417 245.496L895.457 241.536L895.457 241.536L899.417 245.496ZM888.665 254.098L891.17 259.106L891.408 258.987L891.633 258.846L888.665 254.098ZM878.63 257.682L879.325 263.238L879.438 263.224L879.551 263.205L878.63 257.682ZM858.56 253.381L855.2 257.861L855.324 257.954L855.453 258.04L858.56 253.381ZM842.073 239.045L837.945 242.829L838.027 242.919L838.113 243.005L842.073 239.045ZM805.516 214.674L806.211 209.117L806.157 209.11L806.103 209.104L805.516 214.674ZM776.128 218.974L777.825 224.311L777.934 224.276L778.041 224.237L776.128 218.974ZM744.588 232.594L747.187 237.554L747.229 237.532L747.27 237.51L744.588 232.594ZM715.916 250.514L719.195 255.053L719.217 255.038L719.238 255.022L715.916 250.514ZM694.412 266.283L697.713 270.807L697.743 270.785L697.772 270.763L694.412 266.283ZM651.404 304.274L655.599 307.984L655.599 307.984L651.404 304.274ZM621.299 352.299L616.218 349.945L614.201 354.297L618.192 356.959L621.299 352.299ZM660.723 365.202V370.802H660.823L660.923 370.798L660.723 365.202ZM701.58 358.034L703.24 363.382L701.58 358.034ZM742.438 342.264L744.796 347.343L744.835 347.325L744.873 347.307L742.438 342.264ZM784.012 326.494L785.502 331.893L785.526 331.886L785.551 331.879L784.012 326.494ZM846.374 317.176L846.498 322.775L846.498 322.775L846.374 317.176ZM906.585 325.061L904.938 330.413L904.957 330.419L904.976 330.425L906.585 325.061ZM956.761 353.016L953.015 357.178L953.015 357.178L956.761 353.016ZM986.15 403.192L991.583 401.834L991.579 401.819L991.575 401.804L986.15 403.192ZM988.3 412.51L982.809 413.609L982.835 413.739L982.868 413.869L988.3 412.51ZM989.017 418.245H983.417V419.154L983.705 420.016L989.017 418.245ZM989.734 423.979H984.134V424.377L984.19 424.771L989.734 423.979ZM988.3 477.739L993.685 479.278L993.777 478.955L993.83 478.624L988.3 477.739ZM986.15 487.774L991.674 488.695L991.684 488.631L991.694 488.566L986.15 487.774ZM979.284 496.451C977.682 502.859 976.966 511.769 976.966 522.898H988.166C988.166 512.045 988.884 504.229 990.149 499.168L979.284 496.451ZM977.557 520.393C976.441 522.625 976.249 525.477 976.249 527.915H987.449C987.449 526.886 987.502 526.152 987.572 525.661C987.65 525.116 987.715 525.122 987.575 525.402L977.557 520.393ZM976.453 526.416C974.116 534.832 971.308 543.257 968.028 551.69L978.467 555.75C981.877 546.98 984.804 538.201 987.245 529.414L976.453 526.416ZM967.967 551.856C965.121 559.921 962.035 568.228 958.71 576.778L969.148 580.838C972.513 572.185 975.64 563.767 978.528 555.584L967.967 551.856ZM958.71 576.778C955.3 585.548 952.373 594.327 949.932 603.114L960.723 606.112C963.061 597.696 965.869 589.271 969.148 580.838L958.71 576.778ZM949.932 603.114C947.405 612.212 946.144 621.557 946.144 631.134H957.344C957.344 622.553 958.472 614.217 960.723 606.112L949.932 603.114ZM947.084 628.028C937.432 642.506 927.797 658.406 918.176 675.724L927.967 681.163C937.461 664.073 946.94 648.435 956.403 634.241L947.084 628.028ZM918.15 675.771C909.129 692.388 899.394 709.011 888.942 725.639L898.424 731.599C908.998 714.777 918.855 697.949 927.993 681.115L918.15 675.771ZM888.942 725.639C878.52 742.218 867.633 757.838 856.282 772.5L865.138 779.356C876.724 764.391 887.819 748.471 898.424 731.599L888.942 725.639ZM856.23 772.568C845.026 787.506 832.693 800.295 819.24 810.964L826.199 819.74C840.463 808.427 853.456 794.933 865.19 779.288L856.23 772.568ZM819.102 811.077C813.219 816.055 806.126 820.873 797.779 825.51L803.218 835.3C812.075 830.38 819.796 825.162 826.337 819.627L819.102 811.077ZM797.457 825.703C789.589 830.794 781 835.44 771.679 839.634L776.275 849.848C786.069 845.44 795.161 840.529 803.541 835.106L797.457 825.703ZM771.679 839.634C762.471 843.778 752.791 847.006 742.63 849.315L745.113 860.237C755.978 857.767 766.369 854.306 776.275 849.848L771.679 839.634ZM742.574 849.328C732.908 851.63 723.788 852.76 715.2 852.76V863.96C724.77 863.96 734.765 862.701 745.169 860.224L742.574 849.328ZM715.336 852.762C696.603 852.305 680.116 847.749 665.732 839.209L660.014 848.839C676.213 858.458 694.611 863.46 715.063 863.958L715.336 852.762ZM665.732 839.209C651.168 830.561 638.855 818.948 628.781 804.295L619.551 810.64C630.503 826.57 643.995 839.328 660.014 848.839L665.732 839.209ZM628.781 804.295C618.636 789.539 610.753 772.647 605.169 753.568L594.42 756.714C600.305 776.82 608.67 794.812 619.551 810.64L628.781 804.295ZM605.159 753.532C599.563 734.881 596.29 715.267 595.354 694.675L584.165 695.184C585.141 716.644 588.557 737.171 594.431 756.75L605.159 753.532ZM595.354 694.675C594.417 674.074 595.822 653.716 599.566 633.592L588.555 631.544C584.653 652.516 583.19 673.733 584.165 695.184L595.354 694.675ZM599.566 633.592C603.303 613.507 609.365 594.875 617.733 577.674L607.661 572.774C598.827 590.935 592.464 610.532 588.555 631.544L599.566 633.592ZM617.776 577.582C623.751 564.715 632.556 551.004 644.295 536.448L635.576 529.417C623.421 544.49 614.068 558.973 607.618 572.866L617.776 577.582ZM644.282 536.464C656.545 521.371 669.75 507.223 683.897 494.019L676.255 485.831C661.731 499.387 648.175 513.911 635.589 529.401L644.282 536.464ZM683.83 494.081C698.45 480.876 713.276 469.348 728.307 459.483L722.162 450.12C706.61 460.326 691.331 472.213 676.323 485.769L683.83 494.081ZM728.407 459.416C743.413 449.1 756.752 442.251 768.456 438.65L765.162 427.945C752.017 431.99 737.64 439.477 722.062 450.187L728.407 459.416ZM768.348 438.682C781.142 435.027 793.623 433.678 805.819 434.581L806.647 423.412C793.039 422.404 779.237 423.923 765.271 427.913L768.348 438.682ZM806.026 434.593C818.649 435.06 831.028 436.463 843.166 438.797L845.281 427.798C832.57 425.354 819.622 423.889 806.44 423.401L806.026 434.593ZM840.864 437.778C847.5 442.755 852.918 450.178 856.929 460.426L867.359 456.345C862.767 444.612 856.238 435.309 847.584 428.818L840.864 437.778ZM857.046 460.703C861.551 470.616 864.52 481.74 865.896 494.127L877.028 492.89C875.537 479.473 872.293 467.182 867.242 456.068L857.046 460.703ZM865.899 494.151C867.281 506.128 867.288 518.858 865.892 532.357L877.032 533.509C878.503 519.291 878.51 505.739 877.025 492.867L865.899 494.151ZM865.876 532.534C864.95 545.5 862.638 557.722 858.96 569.216L869.628 572.63C873.595 560.231 876.062 547.126 877.048 533.332L865.876 532.534ZM858.96 569.216C855.308 580.63 850.334 590.297 844.104 598.308L852.945 605.184C860.095 595.991 865.634 585.11 869.628 572.63L858.96 569.216ZM843.985 598.467C838.312 606.321 832.098 610.901 825.44 612.86L828.6 623.604C838.19 620.784 846.312 614.373 853.064 605.024L843.985 598.467ZM825.482 612.847C819.464 614.567 812.939 615.235 805.866 614.793L805.167 625.971C813.385 626.485 821.197 625.72 828.559 623.617L825.482 612.847ZM805.866 614.793C798.703 614.346 792.055 613.007 785.896 610.808L782.129 621.355C789.35 623.934 797.038 625.463 805.167 625.971L805.866 614.793ZM786.359 610.997C780.739 608.403 775.791 604.959 771.486 600.653L763.566 608.573C768.818 613.824 774.861 618.026 781.666 621.166L786.359 610.997ZM771.486 600.653C767.403 596.57 764.847 591.994 763.664 586.867L752.751 589.386C754.435 596.683 758.092 603.098 763.566 608.573L771.486 600.653ZM763.725 587.167C761.882 576.569 762.889 570.209 765.082 566.762L755.633 560.749C751.137 567.815 750.711 577.702 752.69 589.086L763.725 587.167ZM765.017 566.862C768.495 561.645 772.582 557.358 777.271 553.948L770.683 544.89C764.859 549.126 759.867 554.397 755.698 560.649L765.017 566.862ZM777.337 553.899C783.131 549.554 788.689 545.204 794.01 540.851L786.917 532.183C781.725 536.431 776.292 540.683 770.617 544.939L777.337 553.899ZM794.049 540.819C801.118 534.928 805.178 526.348 806.754 515.843L795.678 514.182C794.386 522.792 791.278 528.548 786.879 532.215L794.049 540.819ZM803.799 510.044C790.367 503.059 775.242 502.142 758.842 506.755L761.874 517.536C776.058 513.547 788.171 514.542 798.632 519.981L803.799 510.044ZM758.797 506.768C743.265 511.277 728.107 519.008 713.322 529.851L719.945 538.882C733.832 528.699 747.823 521.616 761.919 517.524L758.797 506.768ZM713.349 529.831C699.036 540.195 686.456 552.532 675.615 566.822L684.538 573.591C694.723 560.165 706.514 548.608 719.918 538.902L713.349 529.831ZM675.615 566.822C664.788 581.094 657.647 594.949 654.549 608.371L665.463 610.89C668.1 599.462 674.339 587.035 684.538 573.591L675.615 566.822ZM654.537 608.427C649.182 632.769 647.211 656.001 648.684 678.099L659.859 677.354C658.465 656.444 660.317 634.279 665.475 610.834L654.537 608.427ZM648.684 678.099C650.155 700.162 654.828 719.532 662.852 736.08L672.93 731.194C665.661 716.203 661.255 698.299 659.859 677.354L648.684 678.099ZM662.882 736.141C671.45 753.278 683.417 766.338 698.819 775.066L704.341 765.321C691.071 757.802 680.579 746.491 672.9 731.132L662.882 736.141ZM698.819 775.066C714.584 783.999 733.443 786.148 754.931 782.15L752.882 771.139C733.274 774.787 717.249 772.636 704.341 765.321L698.819 775.066ZM754.858 782.163C769.677 779.608 783.201 773.469 795.373 763.832L788.421 755.051C777.656 763.574 765.853 768.902 752.955 771.126L754.858 782.163ZM795.257 763.922C807.2 754.964 817.859 744.046 827.241 731.206L818.198 724.598C809.422 736.608 799.531 746.716 788.537 754.962L795.257 763.922ZM827.158 731.317C836.89 718.666 845.646 705.287 853.428 691.184L843.621 685.773C836.111 699.386 827.664 712.29 818.281 724.488L827.158 731.317ZM853.466 691.114C861.108 676.783 868.273 663.41 874.959 650.993L865.098 645.683C858.404 658.115 851.232 671.501 843.583 685.843L853.466 691.114ZM875 650.915C881.79 637.819 888.791 622.362 896.005 604.566L885.626 600.358C878.504 617.925 871.647 633.051 865.057 645.76L875 650.915ZM895.977 604.636C903.717 586.251 910.248 567.384 915.569 548.037L904.77 545.067C899.577 563.949 893.205 582.356 885.654 600.289L895.977 604.636ZM915.569 548.037C920.903 528.64 924.547 509.459 926.492 490.496L915.35 489.353C913.472 507.664 909.949 526.234 904.77 545.067L915.569 548.037ZM926.493 490.482C928.464 470.775 927.014 453.011 921.95 437.313L911.291 440.751C915.784 454.681 917.201 470.846 915.349 489.368L926.493 490.482ZM922.011 437.516C917.388 421.079 908.341 407.623 894.947 397.32L888.118 406.197C899.572 415.008 907.251 426.401 911.23 440.548L922.011 437.516ZM895.031 397.386C881.81 386.809 863.276 381.377 840.161 380.394L839.685 391.584C861.489 392.512 877.361 397.593 888.034 406.131L895.031 397.386ZM840.103 380.392C824.678 379.894 809.499 381.886 794.589 386.359L797.807 397.087C811.569 392.958 825.54 391.128 839.742 391.586L840.103 380.392ZM794.589 386.359C780.105 390.704 765.393 395.77 750.452 401.554L754.495 411.998C769.181 406.313 783.619 401.344 797.807 397.087L794.589 386.359ZM750.393 401.577C736.077 407.303 721.522 413.03 706.727 418.757L710.77 429.202C725.603 423.46 740.197 417.718 754.553 411.975L750.393 401.577ZM706.669 418.78C692.674 424.378 678.211 428.577 663.275 431.378L665.339 442.386C680.986 439.452 696.151 435.049 710.828 429.179L706.669 418.78ZM663.415 431.353C649.149 433.654 634.385 433.891 619.105 432.039L617.758 443.158C634.017 445.129 649.837 444.888 665.198 442.41L663.415 431.353ZM619.105 432.039C604.216 430.234 588.679 424.797 572.468 415.533L566.911 425.257C584.15 435.108 601.107 441.139 617.758 443.158L619.105 432.039ZM574.476 417.489C566.737 404.742 562.538 392.211 561.656 379.855L550.484 380.653C551.513 395.058 556.394 409.288 564.902 423.301L574.476 417.489ZM561.666 380.055C561.208 367.21 562.584 354.867 565.778 343.003L554.963 340.091C551.467 353.077 549.977 366.539 550.474 380.454L561.666 380.055ZM565.723 343.194C569.397 331.253 574.685 319.748 581.606 308.675L572.108 302.739C564.693 314.604 558.99 326.993 555.018 339.9L565.723 343.194ZM581.606 308.675C588.623 297.448 596.08 287.435 603.968 278.619L595.621 271.151C587.263 280.493 579.428 291.028 572.108 302.739L581.606 308.675ZM604.047 278.529C615.22 265.494 629.749 251.883 647.706 237.706L640.766 228.915C622.406 243.41 607.307 257.515 595.543 271.24L604.047 278.529ZM647.776 237.65C665.798 222.947 683.804 209.682 701.791 197.848L695.635 188.491C677.305 200.551 658.992 214.046 640.696 228.971L647.776 237.65ZM701.765 197.865C711.216 191.722 721.39 185.569 732.291 179.408L726.78 169.658C715.699 175.921 705.325 182.193 695.661 188.474L701.765 197.865ZM732.357 179.37C743.656 172.779 754.689 167.147 765.458 162.465L760.992 152.194C749.779 157.069 738.353 162.906 726.714 169.696L732.357 179.37ZM765.558 162.42C776.763 157.285 787.685 153.339 798.328 150.563L795.501 139.725C784.162 142.683 772.625 146.861 760.892 152.239L765.558 162.42ZM798.328 150.563C808.895 147.806 818.344 146.711 826.726 147.152L827.315 135.968C817.538 135.453 806.916 136.747 795.501 139.725L798.328 150.563ZM826.71 147.151C834.303 147.573 842.838 150.125 852.377 155.122L857.574 145.201C847.043 139.685 836.941 136.503 827.331 135.969L826.71 147.151ZM852.658 155.26C862.662 159.807 871.746 165.712 879.927 172.984L887.368 164.613C878.346 156.593 868.315 150.074 857.293 145.064L852.658 155.26ZM879.927 172.984C888.164 180.306 894.982 188.272 900.417 196.877L909.886 190.896C903.852 181.342 896.334 172.583 887.368 164.613L879.927 172.984ZM900.492 196.993C905.735 204.858 907.835 212.032 907.446 218.646L918.627 219.303C919.193 209.669 916.036 200.118 909.811 190.78L900.492 196.993ZM907.464 218.417C907.061 222.446 905.846 226.568 903.727 230.806L913.744 235.815C916.404 230.495 918.056 225.06 918.609 219.532L907.464 218.417ZM903.84 230.591C901.727 234.394 898.948 238.045 895.457 241.536L903.377 249.456C907.532 245.301 910.965 240.828 913.631 236.03L903.84 230.591ZM895.457 241.536C892.397 244.596 889.143 247.195 885.697 249.349L891.633 258.846C895.833 256.222 899.747 253.086 903.377 249.456L895.457 241.536ZM886.161 249.089C882.625 250.856 879.833 251.804 877.709 252.158L879.551 263.205C883.161 262.604 887.059 261.162 891.17 259.106L886.161 249.089ZM877.935 252.125C871.455 252.935 866.148 251.71 861.666 248.721L855.453 258.04C862.439 262.698 870.514 264.34 879.325 263.238L877.935 252.125ZM861.92 248.901C856.405 244.765 851.109 240.161 846.033 235.085L838.113 243.005C843.55 248.442 849.245 253.395 855.2 257.861L861.92 248.901ZM846.201 235.261C840.783 229.349 835.106 223.919 829.172 218.973L822.002 227.577C827.536 232.189 832.851 237.271 837.945 242.829L846.201 235.261ZM829.172 218.973C822.586 213.485 814.884 210.201 806.211 209.117L804.822 220.23C811.44 221.058 817.118 223.508 822.002 227.577L829.172 218.973ZM806.103 209.104C796.008 208.042 785.349 209.662 774.214 213.712L778.041 224.237C787.932 220.641 796.865 219.394 804.93 220.243L806.103 209.104ZM774.43 213.638C763.548 217.1 752.707 221.786 741.907 227.677L747.27 237.51C757.496 231.932 767.68 227.539 777.825 224.311L774.43 213.638ZM741.99 227.633C731.704 233.021 721.904 239.145 712.594 246.005L719.238 255.022C728.087 248.501 737.403 242.679 747.187 237.554L741.99 227.633ZM712.638 245.974C704.02 252.197 696.823 257.475 691.052 261.803L697.772 270.763C703.47 266.49 710.609 261.254 719.195 255.053L712.638 245.974ZM691.111 261.76C673.201 274.829 658.538 287.758 647.21 300.563L655.599 307.984C666.253 295.94 680.262 283.542 697.713 270.807L691.111 261.76ZM647.21 300.563C635.77 313.495 625.461 329.999 616.218 349.945L626.38 354.654C635.296 335.414 645.057 319.901 655.599 307.984L647.21 300.563ZM618.192 356.959C631.865 366.074 646.069 370.802 660.723 370.802V359.602C648.616 359.602 636.538 355.728 624.405 347.64L618.192 356.959ZM660.923 370.798C674.838 370.301 688.948 367.817 703.24 363.382L699.921 352.685C686.497 356.851 673.368 359.146 660.523 359.605L660.923 370.798ZM703.24 363.382C717.341 359.006 731.193 353.659 744.796 347.343L740.08 337.185C726.922 343.294 713.536 348.46 699.921 352.685L703.24 363.382ZM744.873 347.307C758.448 340.753 771.99 335.62 785.502 331.893L782.523 321.096C768.318 325.015 754.144 330.394 740.003 337.221L744.873 347.307ZM785.551 331.879C805.147 326.28 825.458 323.242 846.498 322.775L846.25 311.577C824.282 312.066 803.018 315.24 782.474 321.11L785.551 331.879ZM846.498 322.775C867.464 322.309 886.931 324.872 904.938 330.413L908.232 319.708C888.966 313.78 868.292 311.088 846.25 311.577L846.498 322.775ZM904.976 330.425C923.327 335.93 939.315 344.849 953.015 357.178L960.507 348.854C945.535 335.378 928.073 325.661 908.194 319.697L904.976 330.425ZM953.015 357.178C966.449 369.269 975.713 384.991 980.725 404.58L991.575 401.804C986.073 380.297 975.746 362.568 960.507 348.854L953.015 357.178ZM980.717 404.55C981.663 408.332 982.356 411.343 982.809 413.609L993.792 411.412C993.289 408.899 992.549 405.697 991.583 401.834L980.717 404.55ZM982.868 413.869C983.238 415.35 983.417 416.805 983.417 418.245H994.617C994.617 415.862 994.319 413.494 993.733 411.152L982.868 413.869ZM983.705 420.016C983.915 420.646 984.134 421.884 984.134 423.979H995.334C995.334 421.295 995.075 418.711 994.33 416.474L983.705 420.016ZM984.19 424.771C985.1 431.14 985.568 438.513 985.568 446.917H996.768C996.768 438.118 996.279 430.199 995.278 423.187L984.19 424.771ZM985.568 446.917C985.568 455.13 984.653 465.093 982.771 476.854L993.83 478.624C995.771 466.492 996.768 455.907 996.768 446.917H985.568ZM982.916 476.201C981.892 479.784 981.121 483.378 980.606 486.982L991.694 488.566C992.134 485.481 992.797 482.385 993.685 479.278L982.916 476.201ZM980.626 486.854C980.133 489.816 979.644 493.239 979.16 497.115L990.273 498.504C990.744 494.734 991.212 491.468 991.674 488.695L980.626 486.854Z" fill="black" mask="url(#path-1-outside-1_1_4)"/>
</g>
</g>
<defs>
<filter id="filter0_b_1_4" x="-4" y="-4" width="1008" height="1008" filterUnits="userSpaceOnUse" color-interpolation-filters="sRGB">
<feFlood flood-opacity="0" result="BackgroundImageFix"/>
<feGaussianBlur in="BackgroundImageFix" stdDeviation="2"/>
<feComposite in2="SourceAlpha" operator="in" result="effect1_backgroundBlur_1_4"/>
<feBlend mode="normal" in="SourceGraphic" in2="effect1_backgroundBlur_1_4" result="shape"/>
</filter>
<filter id="filter1_d_1_4" x="-13.87" y="140.843" width="1027.44" height="763.75" filterUnits="userSpaceOnUse" color-interpolation-filters="sRGB">
<feFlood flood-opacity="0" result="BackgroundImageFix"/>
<feColorMatrix in="SourceAlpha" type="matrix" values="0 0 0 0 0 0 0 0 0 0 0 0 0 0 0 0 0 0 127 0" result="hardAlpha"/>
<feOffset dy="22.4"/>
<feGaussianBlur stdDeviation="11.2"/>
<feComposite in2="hardAlpha" operator="out"/>
<feColorMatrix type="matrix" values="0 0 0 0 0 0 0 0 0 0 0 0 0 0 0 0 0 0 0.25 0"/>
<feBlend mode="normal" in2="BackgroundImageFix" result="effect1_dropShadow_1_4"/>
<feBlend mode="normal" in="SourceGraphic" in2="effect1_dropShadow_1_4" result="shape"/>
</filter>
<clipPath id="clip0_1_4">
<rect width="1000" height="1000" fill="white"/>
</clipPath>
</defs>
</svg>
