<svg width="256" height="256" viewBox="0 0 256 256" fill="none" xmlns="http://www.w3.org/2000/svg">
<g clip-path="url(#clip0_6_10)" filter="url(#filter0_b_6_10)">
<g filter="url(#filter1_d_6_10)">
<mask id="path-1-outside-1_6_10" maskUnits="userSpaceOnUse" x="-0.199997" y="33.8" width="256" height="188" fill="black">
<rect fill="white" x="-0.199997" y="33.8" width="256" height="188"/>
<path d="M114.303 37.4674C114.18 50.1901 114.242 63.1575 114.486 76.3695C114.853 89.4593 115.465 102.488 116.321 115.455C117.3 128.423 118.584 141.084 120.175 153.44C121.887 165.796 124.089 177.54 126.781 188.672C127.025 190.018 127.515 191.363 128.249 192.709C128.983 194.055 129.656 195.4 130.267 196.746C130.879 197.969 131.429 199.132 131.919 200.233C132.408 201.334 132.775 202.557 133.02 203.903C133.631 207.083 133.448 210.203 132.469 213.261C131.613 216.442 129.961 218.338 127.515 218.95C125.435 219.561 123.845 219.684 122.744 219.317C121.765 219.072 120.848 218.521 119.991 217.665C119.257 216.809 118.523 215.83 117.789 214.729C117.055 213.75 116.077 212.772 114.853 211.793C114.242 211.304 113.752 210.203 113.385 208.49C113.141 206.777 112.407 204.147 111.183 200.6C110.204 198.031 109.715 196.257 109.715 195.278C109.837 194.422 109.899 193.443 109.899 192.342C109.532 188.06 108.92 183.718 108.064 179.313C107.207 174.787 106.29 170.2 105.311 165.551C104.332 160.78 103.415 156.009 102.559 151.238C101.825 146.345 101.274 141.329 100.907 136.191C100.295 128.484 99.8061 120.654 99.4391 112.703C99.1944 104.629 98.8274 96.1876 98.3381 87.3796C96.9924 88.4806 95.8303 89.8263 94.8516 91.4166C93.9953 93.0069 93.2613 94.8419 92.6496 96.9216C92.0379 98.879 91.4262 100.959 90.8146 103.161C90.3252 105.24 89.8359 107.381 89.3466 109.583C87.3892 117.046 85.6154 125.364 84.025 134.539C82.4347 143.714 80.9667 152.889 79.621 162.064C79.1317 165.367 78.3365 168.609 77.2355 171.79C76.1345 174.848 75.7063 177.845 75.951 180.781C76.0733 182.25 76.6238 183.901 77.6025 185.736C78.5812 187.571 78.9482 189.161 78.7035 190.507C78.3365 192.587 77.419 194.055 75.951 194.911C74.6053 195.767 73.0762 196.196 71.3635 196.196C69.6508 196.318 67.9381 196.134 66.2255 195.645C64.5128 195.278 63.0448 194.728 61.8214 193.994C59.7418 189.223 57.8456 184.085 56.1329 178.579C54.5426 173.074 52.8911 167.569 51.1784 162.064C50.0774 158.639 49.2211 155.091 48.6094 151.421C48.12 147.751 47.4472 143.592 46.5909 138.943C46.3462 136.864 45.7345 134.723 44.7559 132.521C43.8995 130.196 43.349 127.872 43.1044 125.548C42.8597 124.08 42.7985 122.612 42.9209 121.144C43.0432 119.553 43.1044 118.024 43.1044 116.556C43.1044 114.966 42.982 113.437 42.7374 111.969C42.615 110.501 42.1257 109.094 41.2694 107.748C39.9237 108.482 39.0062 109.461 38.5168 110.684C38.0275 111.785 37.6605 113.009 37.4158 114.354C37.2935 115.578 37.2323 116.862 37.2323 118.208C37.2323 119.553 37.11 120.838 36.8653 122.061C36.2537 124.263 35.5197 126.465 34.6633 128.667C33.807 130.869 33.073 133.071 32.4613 135.273C30.7486 141.635 29.0971 148.057 27.5068 154.541C26.0388 160.902 24.1426 166.652 21.8183 171.79V180.781C20.3503 182.25 18.6376 183.167 16.6802 183.534C14.7229 184.023 12.7656 184.023 10.8082 183.534C8.97321 183.167 7.26053 182.433 5.67019 181.332C4.07985 180.109 2.91768 178.702 2.18368 177.111C9.03437 159.495 14.7841 140.962 19.4328 121.511C24.2038 102.06 28.5466 82.0581 32.4613 61.506C33.44 60.8943 34.0517 59.9156 34.2963 58.5699C34.541 57.1019 35.0915 56.0009 35.9478 55.2669V48.1104C38.2722 47.3764 40.413 46.4589 42.3704 45.3579C44.3277 44.1346 46.652 43.2782 49.3434 42.7889C50.9337 43.7675 52.0347 44.9909 52.6464 46.4589C53.2581 47.8046 53.5639 49.2726 53.5639 50.8629C53.5639 52.4533 53.4416 54.1048 53.1969 55.8174C52.9522 57.4078 52.8299 58.9981 52.8299 60.5885C52.8299 67.1945 53.2581 74.0452 54.1144 81.1406C54.9707 88.1136 55.9494 95.1478 57.0504 102.243C58.1514 109.216 59.2524 116.128 60.3534 122.979C61.5768 129.829 62.6166 136.313 63.473 142.43C64.6963 141.94 65.5526 141.268 66.042 140.411C66.5313 139.433 66.8371 138.454 66.9595 137.475C67.0818 136.374 67.0818 135.273 66.9595 134.172C66.8371 132.949 66.8983 131.848 67.143 130.869C67.6323 128.056 68.244 125.303 68.978 122.612C69.8343 119.92 70.6907 117.046 71.547 113.987C73.2597 107.748 74.85 101.631 76.318 95.6371C77.9083 89.6428 79.5599 83.5872 81.2725 77.4705C83.3522 70.4975 85.4319 64.0138 87.5116 58.0195C89.7136 51.9028 92.4049 45.9696 95.5856 40.2199C97.0536 39.9752 98.5828 39.4859 100.173 38.7519C101.763 38.0179 103.354 37.4062 104.944 36.9169C106.534 36.3052 108.125 35.9994 109.715 35.9994C111.305 35.877 112.835 36.3663 114.303 37.4674ZM252.087 127.199C251.72 128.667 251.537 130.808 251.537 133.622C251.415 133.866 251.353 134.295 251.353 134.906C250.742 137.108 250.008 139.31 249.151 141.512C248.417 143.592 247.622 145.733 246.766 147.935C245.91 150.137 245.176 152.339 244.564 154.541C243.952 156.743 243.646 159.006 243.646 161.33C241.2 165 238.753 169.037 236.306 173.441C233.982 177.723 231.474 182.005 228.783 186.287C226.091 190.568 223.278 194.605 220.342 198.398C217.406 202.312 214.164 205.676 210.616 208.49C209.026 209.836 207.13 211.12 204.928 212.344C202.848 213.689 200.585 214.913 198.138 216.014C195.691 217.115 193.122 217.971 190.431 218.583C187.862 219.194 185.415 219.5 183.091 219.5C178.075 219.378 173.61 218.154 169.696 215.83C165.781 213.506 162.478 210.386 159.787 206.472C157.095 202.557 155.015 198.092 153.547 193.076C152.079 188.183 151.223 183.045 150.978 177.662C150.734 172.279 151.101 166.958 152.079 161.697C153.058 156.437 154.648 151.544 156.85 147.017C158.441 143.592 160.765 139.983 163.824 136.191C167.004 132.276 170.43 128.606 174.1 125.181C177.892 121.755 181.745 118.758 185.66 116.189C189.575 113.498 193.122 111.663 196.303 110.684C199.729 109.706 203.093 109.339 206.396 109.583C209.699 109.706 212.941 110.073 216.121 110.684C218.079 112.152 219.608 114.293 220.709 117.107C221.932 119.798 222.727 122.795 223.094 126.098C223.461 129.279 223.461 132.643 223.094 136.191C222.85 139.616 222.238 142.858 221.259 145.916C220.281 148.975 218.935 151.605 217.222 153.807C215.632 156.009 213.797 157.416 211.717 158.027C210.005 158.517 208.17 158.7 206.212 158.578C204.255 158.456 202.42 158.089 200.707 157.477C199.117 156.743 197.71 155.764 196.487 154.541C195.263 153.318 194.468 151.911 194.101 150.32C193.612 147.507 193.795 145.427 194.652 144.081C195.63 142.613 196.793 141.39 198.138 140.411C199.606 139.31 201.013 138.209 202.359 137.108C203.827 135.885 204.744 134.05 205.111 131.603C202.053 130.013 198.566 129.768 194.652 130.869C190.859 131.97 187.128 133.866 183.458 136.558C179.91 139.127 176.791 142.185 174.1 145.733C171.408 149.281 169.696 152.645 168.962 155.825C167.616 161.942 167.127 167.753 167.494 173.258C167.861 178.763 169.023 183.534 170.98 187.571C173.06 191.73 175.935 194.85 179.605 196.93C183.275 199.009 187.74 199.56 193 198.581C196.548 197.969 199.79 196.501 202.726 194.177C205.662 191.975 208.292 189.284 210.616 186.103C213.063 182.922 215.265 179.558 217.222 176.01C219.18 172.34 221.015 168.915 222.727 165.734C224.44 162.431 226.214 158.517 228.049 153.99C230.006 149.342 231.658 144.571 233.003 139.677C234.349 134.784 235.267 129.952 235.756 125.181C236.245 120.287 235.878 115.945 234.655 112.152C233.554 108.238 231.413 105.057 228.232 102.61C225.174 100.163 220.77 98.8178 215.02 98.5731C211.228 98.4508 207.497 98.9401 203.827 100.041C200.157 101.142 196.426 102.427 192.633 103.895C188.963 105.363 185.232 106.831 181.44 108.299C177.77 109.767 173.977 110.868 170.063 111.602C166.27 112.213 162.356 112.275 158.318 111.785C154.281 111.296 150.122 109.828 145.84 107.381C143.761 103.956 142.599 100.53 142.354 97.1051C142.232 93.6798 142.599 90.3768 143.455 87.1961C144.434 84.0154 145.84 80.957 147.675 78.021C149.51 75.085 151.468 72.4548 153.547 70.1305C156.483 66.7052 160.276 63.1575 164.925 59.4875C169.573 55.6951 174.222 52.2698 178.871 49.2114C181.317 47.6211 183.947 46.0307 186.761 44.4404C189.697 42.7277 192.572 41.2597 195.386 40.0364C198.322 38.6907 201.197 37.6509 204.01 36.9169C206.824 36.1828 209.393 35.877 211.717 35.9994C213.919 36.1217 216.305 36.8557 218.874 38.2014C221.565 39.4247 224.012 41.015 226.214 42.9724C228.416 44.9297 230.251 47.0706 231.719 49.3949C233.187 51.5969 233.86 53.7378 233.737 55.8174C233.615 57.0408 233.248 58.2641 232.636 59.4875C232.025 60.5885 231.229 61.6283 230.251 62.607C229.394 63.4633 228.477 64.1973 227.498 64.809C226.52 65.2983 225.663 65.6041 224.929 65.7265C222.972 65.9711 221.259 65.6041 219.791 64.6255C218.323 63.5245 216.916 62.3011 215.571 60.9555C214.225 59.4875 212.818 58.1418 211.35 56.9184C209.882 55.6951 208.17 54.9611 206.212 54.7164C203.888 54.4718 201.38 54.8388 198.689 55.8174C195.997 56.6738 193.306 57.8359 190.615 59.304C188.046 60.6496 185.599 62.1788 183.275 63.8915C181.073 65.4818 179.238 66.8275 177.77 67.9285C173.243 71.2315 169.573 74.4734 166.76 77.654C163.946 80.8347 161.377 84.9329 159.053 89.9486C162.356 92.1506 165.72 93.2516 169.145 93.2516C172.57 93.1293 176.057 92.5176 179.605 91.4166C183.152 90.3156 186.639 88.9699 190.064 87.3796C193.612 85.6669 197.16 84.3212 200.707 83.3426C205.845 81.8746 211.167 81.0794 216.672 80.9571C222.177 80.8347 227.315 81.5075 232.086 82.9756C236.979 84.4436 241.261 86.8291 244.931 90.1321C248.601 93.4351 251.109 97.7168 252.454 102.977C252.699 103.956 252.883 104.751 253.005 105.363C253.127 105.852 253.188 106.341 253.188 106.831C253.311 107.198 253.372 107.687 253.372 108.299C253.617 110.011 253.739 111.969 253.739 114.171C253.739 116.373 253.494 119.003 253.005 122.061C252.76 122.918 252.577 123.774 252.454 124.63C252.332 125.364 252.21 126.221 252.087 127.199Z"/>
</mask>
<path d="M114.303 37.4674C114.18 50.1901 114.242 63.1575 114.486 76.3695C114.853 89.4593 115.465 102.488 116.321 115.455C117.3 128.423 118.584 141.084 120.175 153.44C121.887 165.796 124.089 177.54 126.781 188.672C127.025 190.018 127.515 191.363 128.249 192.709C128.983 194.055 129.656 195.4 130.267 196.746C130.879 197.969 131.429 199.132 131.919 200.233C132.408 201.334 132.775 202.557 133.02 203.903C133.631 207.083 133.448 210.203 132.469 213.261C131.613 216.442 129.961 218.338 127.515 218.95C125.435 219.561 123.845 219.684 122.744 219.317C121.765 219.072 120.848 218.521 119.991 217.665C119.257 216.809 118.523 215.83 117.789 214.729C117.055 213.75 116.077 212.772 114.853 211.793C114.242 211.304 113.752 210.203 113.385 208.49C113.141 206.777 112.407 204.147 111.183 200.6C110.204 198.031 109.715 196.257 109.715 195.278C109.837 194.422 109.899 193.443 109.899 192.342C109.532 188.06 108.92 183.718 108.064 179.313C107.207 174.787 106.29 170.2 105.311 165.551C104.332 160.78 103.415 156.009 102.559 151.238C101.825 146.345 101.274 141.329 100.907 136.191C100.295 128.484 99.8061 120.654 99.4391 112.703C99.1944 104.629 98.8274 96.1876 98.3381 87.3796C96.9924 88.4806 95.8303 89.8263 94.8516 91.4166C93.9953 93.0069 93.2613 94.8419 92.6496 96.9216C92.0379 98.879 91.4262 100.959 90.8146 103.161C90.3252 105.24 89.8359 107.381 89.3466 109.583C87.3892 117.046 85.6154 125.364 84.025 134.539C82.4347 143.714 80.9667 152.889 79.621 162.064C79.1317 165.367 78.3365 168.609 77.2355 171.79C76.1345 174.848 75.7063 177.845 75.951 180.781C76.0733 182.25 76.6238 183.901 77.6025 185.736C78.5812 187.571 78.9482 189.161 78.7035 190.507C78.3365 192.587 77.419 194.055 75.951 194.911C74.6053 195.767 73.0762 196.196 71.3635 196.196C69.6508 196.318 67.9381 196.134 66.2255 195.645C64.5128 195.278 63.0448 194.728 61.8214 193.994C59.7418 189.223 57.8456 184.085 56.1329 178.579C54.5426 173.074 52.8911 167.569 51.1784 162.064C50.0774 158.639 49.2211 155.091 48.6094 151.421C48.12 147.751 47.4472 143.592 46.5909 138.943C46.3462 136.864 45.7345 134.723 44.7559 132.521C43.8995 130.196 43.349 127.872 43.1044 125.548C42.8597 124.08 42.7985 122.612 42.9209 121.144C43.0432 119.553 43.1044 118.024 43.1044 116.556C43.1044 114.966 42.982 113.437 42.7374 111.969C42.615 110.501 42.1257 109.094 41.2694 107.748C39.9237 108.482 39.0062 109.461 38.5168 110.684C38.0275 111.785 37.6605 113.009 37.4158 114.354C37.2935 115.578 37.2323 116.862 37.2323 118.208C37.2323 119.553 37.11 120.838 36.8653 122.061C36.2537 124.263 35.5197 126.465 34.6633 128.667C33.807 130.869 33.073 133.071 32.4613 135.273C30.7486 141.635 29.0971 148.057 27.5068 154.541C26.0388 160.902 24.1426 166.652 21.8183 171.79V180.781C20.3503 182.25 18.6376 183.167 16.6802 183.534C14.7229 184.023 12.7656 184.023 10.8082 183.534C8.97321 183.167 7.26053 182.433 5.67019 181.332C4.07985 180.109 2.91768 178.702 2.18368 177.111C9.03437 159.495 14.7841 140.962 19.4328 121.511C24.2038 102.06 28.5466 82.0581 32.4613 61.506C33.44 60.8943 34.0517 59.9156 34.2963 58.5699C34.541 57.1019 35.0915 56.0009 35.9478 55.2669V48.1104C38.2722 47.3764 40.413 46.4589 42.3704 45.3579C44.3277 44.1346 46.652 43.2782 49.3434 42.7889C50.9337 43.7675 52.0347 44.9909 52.6464 46.4589C53.2581 47.8046 53.5639 49.2726 53.5639 50.8629C53.5639 52.4533 53.4416 54.1048 53.1969 55.8174C52.9522 57.4078 52.8299 58.9981 52.8299 60.5885C52.8299 67.1945 53.2581 74.0452 54.1144 81.1406C54.9707 88.1136 55.9494 95.1478 57.0504 102.243C58.1514 109.216 59.2524 116.128 60.3534 122.979C61.5768 129.829 62.6166 136.313 63.473 142.43C64.6963 141.94 65.5526 141.268 66.042 140.411C66.5313 139.433 66.8371 138.454 66.9595 137.475C67.0818 136.374 67.0818 135.273 66.9595 134.172C66.8371 132.949 66.8983 131.848 67.143 130.869C67.6323 128.056 68.244 125.303 68.978 122.612C69.8343 119.92 70.6907 117.046 71.547 113.987C73.2597 107.748 74.85 101.631 76.318 95.6371C77.9083 89.6428 79.5599 83.5872 81.2725 77.4705C83.3522 70.4975 85.4319 64.0138 87.5116 58.0195C89.7136 51.9028 92.4049 45.9696 95.5856 40.2199C97.0536 39.9752 98.5828 39.4859 100.173 38.7519C101.763 38.0179 103.354 37.4062 104.944 36.9169C106.534 36.3052 108.125 35.9994 109.715 35.9994C111.305 35.877 112.835 36.3663 114.303 37.4674ZM252.087 127.199C251.72 128.667 251.537 130.808 251.537 133.622C251.415 133.866 251.353 134.295 251.353 134.906C250.742 137.108 250.008 139.31 249.151 141.512C248.417 143.592 247.622 145.733 246.766 147.935C245.91 150.137 245.176 152.339 244.564 154.541C243.952 156.743 243.646 159.006 243.646 161.33C241.2 165 238.753 169.037 236.306 173.441C233.982 177.723 231.474 182.005 228.783 186.287C226.091 190.568 223.278 194.605 220.342 198.398C217.406 202.312 214.164 205.676 210.616 208.49C209.026 209.836 207.13 211.12 204.928 212.344C202.848 213.689 200.585 214.913 198.138 216.014C195.691 217.115 193.122 217.971 190.431 218.583C187.862 219.194 185.415 219.5 183.091 219.5C178.075 219.378 173.61 218.154 169.696 215.83C165.781 213.506 162.478 210.386 159.787 206.472C157.095 202.557 155.015 198.092 153.547 193.076C152.079 188.183 151.223 183.045 150.978 177.662C150.734 172.279 151.101 166.958 152.079 161.697C153.058 156.437 154.648 151.544 156.85 147.017C158.441 143.592 160.765 139.983 163.824 136.191C167.004 132.276 170.43 128.606 174.1 125.181C177.892 121.755 181.745 118.758 185.66 116.189C189.575 113.498 193.122 111.663 196.303 110.684C199.729 109.706 203.093 109.339 206.396 109.583C209.699 109.706 212.941 110.073 216.121 110.684C218.079 112.152 219.608 114.293 220.709 117.107C221.932 119.798 222.727 122.795 223.094 126.098C223.461 129.279 223.461 132.643 223.094 136.191C222.85 139.616 222.238 142.858 221.259 145.916C220.281 148.975 218.935 151.605 217.222 153.807C215.632 156.009 213.797 157.416 211.717 158.027C210.005 158.517 208.17 158.7 206.212 158.578C204.255 158.456 202.42 158.089 200.707 157.477C199.117 156.743 197.71 155.764 196.487 154.541C195.263 153.318 194.468 151.911 194.101 150.32C193.612 147.507 193.795 145.427 194.652 144.081C195.63 142.613 196.793 141.39 198.138 140.411C199.606 139.31 201.013 138.209 202.359 137.108C203.827 135.885 204.744 134.05 205.111 131.603C202.053 130.013 198.566 129.768 194.652 130.869C190.859 131.97 187.128 133.866 183.458 136.558C179.91 139.127 176.791 142.185 174.1 145.733C171.408 149.281 169.696 152.645 168.962 155.825C167.616 161.942 167.127 167.753 167.494 173.258C167.861 178.763 169.023 183.534 170.98 187.571C173.06 191.73 175.935 194.85 179.605 196.93C183.275 199.009 187.74 199.56 193 198.581C196.548 197.969 199.79 196.501 202.726 194.177C205.662 191.975 208.292 189.284 210.616 186.103C213.063 182.922 215.265 179.558 217.222 176.01C219.18 172.34 221.015 168.915 222.727 165.734C224.44 162.431 226.214 158.517 228.049 153.99C230.006 149.342 231.658 144.571 233.003 139.677C234.349 134.784 235.267 129.952 235.756 125.181C236.245 120.287 235.878 115.945 234.655 112.152C233.554 108.238 231.413 105.057 228.232 102.61C225.174 100.163 220.77 98.8178 215.02 98.5731C211.228 98.4508 207.497 98.9401 203.827 100.041C200.157 101.142 196.426 102.427 192.633 103.895C188.963 105.363 185.232 106.831 181.44 108.299C177.77 109.767 173.977 110.868 170.063 111.602C166.27 112.213 162.356 112.275 158.318 111.785C154.281 111.296 150.122 109.828 145.84 107.381C143.761 103.956 142.599 100.53 142.354 97.1051C142.232 93.6798 142.599 90.3768 143.455 87.1961C144.434 84.0154 145.84 80.957 147.675 78.021C149.51 75.085 151.468 72.4548 153.547 70.1305C156.483 66.7052 160.276 63.1575 164.925 59.4875C169.573 55.6951 174.222 52.2698 178.871 49.2114C181.317 47.6211 183.947 46.0307 186.761 44.4404C189.697 42.7277 192.572 41.2597 195.386 40.0364C198.322 38.6907 201.197 37.6509 204.01 36.9169C206.824 36.1828 209.393 35.877 211.717 35.9994C213.919 36.1217 216.305 36.8557 218.874 38.2014C221.565 39.4247 224.012 41.015 226.214 42.9724C228.416 44.9297 230.251 47.0706 231.719 49.3949C233.187 51.5969 233.86 53.7378 233.737 55.8174C233.615 57.0408 233.248 58.2641 232.636 59.4875C232.025 60.5885 231.229 61.6283 230.251 62.607C229.394 63.4633 228.477 64.1973 227.498 64.809C226.52 65.2983 225.663 65.6041 224.929 65.7265C222.972 65.9711 221.259 65.6041 219.791 64.6255C218.323 63.5245 216.916 62.3011 215.571 60.9555C214.225 59.4875 212.818 58.1418 211.35 56.9184C209.882 55.6951 208.17 54.9611 206.212 54.7164C203.888 54.4718 201.38 54.8388 198.689 55.8174C195.997 56.6738 193.306 57.8359 190.615 59.304C188.046 60.6496 185.599 62.1788 183.275 63.8915C181.073 65.4818 179.238 66.8275 177.77 67.9285C173.243 71.2315 169.573 74.4734 166.76 77.654C163.946 80.8347 161.377 84.9329 159.053 89.9486C162.356 92.1506 165.72 93.2516 169.145 93.2516C172.57 93.1293 176.057 92.5176 179.605 91.4166C183.152 90.3156 186.639 88.9699 190.064 87.3796C193.612 85.6669 197.16 84.3212 200.707 83.3426C205.845 81.8746 211.167 81.0794 216.672 80.9571C222.177 80.8347 227.315 81.5075 232.086 82.9756C236.979 84.4436 241.261 86.8291 244.931 90.1321C248.601 93.4351 251.109 97.7168 252.454 102.977C252.699 103.956 252.883 104.751 253.005 105.363C253.127 105.852 253.188 106.341 253.188 106.831C253.311 107.198 253.372 107.687 253.372 108.299C253.617 110.011 253.739 111.969 253.739 114.171C253.739 116.373 253.494 119.003 253.005 122.061C252.76 122.918 252.577 123.774 252.454 124.63C252.332 125.364 252.21 126.221 252.087 127.199Z" fill="white"/>
<path d="M114.303 37.4674L115.736 37.4811L115.743 36.7557L115.163 36.3205L114.303 37.4674ZM114.486 76.3695L113.053 76.3961L113.053 76.4097L114.486 76.3695ZM116.321 115.455L114.891 115.55L114.892 115.563L116.321 115.455ZM120.175 153.44L118.753 153.623L118.755 153.637L120.175 153.44ZM126.781 188.672L128.191 188.416L128.184 188.375L128.174 188.335L126.781 188.672ZM128.249 192.709L129.507 192.023L129.507 192.023L128.249 192.709ZM130.267 196.746L128.962 197.339L128.973 197.363L128.985 197.387L130.267 196.746ZM131.919 200.233L130.609 200.815L130.609 200.815L131.919 200.233ZM133.02 203.903L131.609 204.159L131.611 204.166L131.612 204.173L133.02 203.903ZM132.469 213.261L131.104 212.824L131.094 212.856L131.085 212.888L132.469 213.261ZM127.515 218.95L127.167 217.559L127.138 217.566L127.11 217.574L127.515 218.95ZM122.744 219.317L123.197 217.957L123.145 217.939L123.091 217.926L122.744 219.317ZM119.991 217.665L118.903 218.598L118.939 218.64L118.977 218.679L119.991 217.665ZM117.789 214.729L118.982 213.934L118.96 213.901L118.936 213.869L117.789 214.729ZM114.853 211.793L115.749 210.674L115.749 210.674L114.853 211.793ZM113.385 208.49L111.966 208.693L111.973 208.742L111.983 208.79L113.385 208.49ZM111.183 200.6L112.538 200.132L112.531 200.111L112.523 200.089L111.183 200.6ZM109.715 195.278L108.296 195.075L108.282 195.176V195.278H109.715ZM109.899 192.342H111.332V192.281L111.327 192.22L109.899 192.342ZM108.064 179.313L106.655 179.58L106.656 179.587L108.064 179.313ZM105.311 165.551L103.907 165.839L103.908 165.846L105.311 165.551ZM102.559 151.238L101.141 151.451L101.144 151.471L101.148 151.491L102.559 151.238ZM100.907 136.191L102.337 136.089L102.336 136.077L100.907 136.191ZM99.4391 112.703L98.0062 112.746L98.0065 112.757L98.007 112.769L99.4391 112.703ZM98.3381 87.3796L99.7695 87.3001L99.6131 84.4841L97.4303 86.27L98.3381 87.3796ZM94.8516 91.4166L93.6306 90.6652L93.609 90.7005L93.5893 90.7369L94.8516 91.4166ZM92.6496 96.9216L94.0179 97.3492L94.0215 97.3377L94.0249 97.3261L92.6496 96.9216ZM90.8146 103.161L89.4333 102.777L89.4256 102.804L89.4191 102.832L90.8146 103.161ZM89.3466 109.583L90.7333 109.947L90.7401 109.921L90.746 109.894L89.3466 109.583ZM84.025 134.539L82.6125 134.294L82.6125 134.294L84.025 134.539ZM79.621 162.064L81.0391 162.275L81.0394 162.272L79.621 162.064ZM77.2355 171.79L78.5844 172.276L78.5874 172.267L78.5902 172.259L77.2355 171.79ZM75.951 180.781L74.5224 180.901L74.5224 180.901L75.951 180.781ZM77.6025 185.736L76.3376 186.411L76.3376 186.411L77.6025 185.736ZM78.7035 190.507L77.293 190.251L77.2917 190.258L78.7035 190.507ZM75.951 194.911L75.2287 193.673L75.2047 193.687L75.1813 193.702L75.951 194.911ZM71.3635 196.196V194.762H71.3123L71.2613 194.766L71.3635 196.196ZM66.2255 195.645L66.6193 194.267L66.573 194.253L66.5258 194.243L66.2255 195.645ZM61.8214 193.994L60.5073 194.566L60.6905 194.987L61.0839 195.223L61.8214 193.994ZM56.1329 178.579L54.7556 178.977L54.7597 178.991L54.764 179.005L56.1329 178.579ZM51.1784 162.064L52.5473 161.639L52.5432 161.626L51.1784 162.064ZM48.6094 151.421L47.1884 151.611L47.1915 151.634L47.1953 151.657L48.6094 151.421ZM46.5909 138.943L45.1671 139.111L45.1725 139.157L45.181 139.203L46.5909 138.943ZM44.7559 132.521L43.4107 133.016L43.4268 133.06L43.4458 133.103L44.7559 132.521ZM43.1044 125.548L44.5301 125.398L44.5256 125.355L44.5185 125.312L43.1044 125.548ZM42.9209 121.144L44.3495 121.263L44.3502 121.254L42.9209 121.144ZM42.7374 111.969L41.3087 112.088L41.3136 112.146L41.3233 112.204L42.7374 111.969ZM41.2694 107.748L42.4788 106.979L41.7594 105.848L40.5829 106.49L41.2694 107.748ZM38.5168 110.684L39.8269 111.266L39.8379 111.242L39.8479 111.217L38.5168 110.684ZM37.4158 114.354L36.0054 114.098L35.9951 114.154L35.9893 114.212L37.4158 114.354ZM36.8653 122.061L38.2466 122.445L38.2607 122.394L38.2711 122.342L36.8653 122.061ZM34.6633 128.667L33.3272 128.148L33.3272 128.148L34.6633 128.667ZM32.4613 135.273L31.08 134.89L31.077 134.901L32.4613 135.273ZM27.5068 154.541L26.1145 154.199L26.1121 154.209L26.1099 154.219L27.5068 154.541ZM21.8183 171.79L20.5121 171.199L20.3847 171.481V171.79H21.8183ZM21.8183 180.781L22.832 181.795L23.2519 181.375V180.781H21.8183ZM16.6802 183.534L16.416 182.125L16.374 182.133L16.3325 182.143L16.6802 183.534ZM10.8082 183.534L11.1559 182.143L11.1228 182.135L11.0894 182.128L10.8082 183.534ZM5.67019 181.332L4.79611 182.468L4.82461 182.49L4.85417 182.511L5.67019 181.332ZM2.18368 177.111L0.847556 176.592L0.62686 177.159L0.882027 177.712L2.18368 177.111ZM19.4328 121.511L18.0404 121.169L18.0384 121.177L19.4328 121.511ZM32.4613 61.506L31.7015 60.2903L31.1703 60.6223L31.053 61.2377L32.4613 61.506ZM34.2963 58.5699L35.7068 58.8264L35.7087 58.816L35.7104 58.8056L34.2963 58.5699ZM35.9478 55.2669L36.8808 56.3554L37.3814 55.9263V55.2669H35.9478ZM35.9478 48.1104L35.5161 46.7433L34.5142 47.0597V48.1104H35.9478ZM42.3704 45.3579L43.0732 46.6074L43.1021 46.5911L43.1302 46.5736L42.3704 45.3579ZM49.3434 42.7889L50.0947 41.5679L49.6271 41.2802L49.0869 41.3784L49.3434 42.7889ZM52.6464 46.4589L51.3231 47.0103L51.3319 47.0313L51.3413 47.0521L52.6464 46.4589ZM53.1969 55.8174L54.6138 56.0354L54.615 56.0278L54.6161 56.0202L53.1969 55.8174ZM54.1144 81.1406L52.6911 81.3123L52.6915 81.3153L54.1144 81.1406ZM57.0504 102.243L55.6338 102.463L55.6344 102.467L57.0504 102.243ZM60.3534 122.979L58.938 123.206L58.94 123.219L58.9422 123.231L60.3534 122.979ZM63.473 142.43L62.0532 142.629L62.3068 144.44L64.0054 143.761L63.473 142.43ZM66.042 140.411L67.2867 141.123L67.3064 141.088L67.3242 141.052L66.042 140.411ZM66.9595 137.475L68.382 137.653L68.3832 137.643L68.3843 137.634L66.9595 137.475ZM66.9595 134.172L65.533 134.315L65.5338 134.323L65.5346 134.331L66.9595 134.172ZM67.143 130.869L68.5338 131.217L68.5464 131.166L68.5554 131.115L67.143 130.869ZM68.978 122.612L67.6119 122.177L67.6028 122.206L67.5949 122.235L68.978 122.612ZM71.547 113.987L72.9275 114.374L72.9294 114.367L71.547 113.987ZM76.318 95.6371L74.9323 95.2695L74.9288 95.2828L74.9256 95.2961L76.318 95.6371ZM81.2725 77.4705L79.8987 77.0608L79.8953 77.0724L79.892 77.084L81.2725 77.4705ZM87.5116 58.0195L86.1627 57.5339L86.1599 57.5417L86.1572 57.5496L87.5116 58.0195ZM95.5856 40.2199L95.3499 38.8058L94.6665 38.9197L94.3311 39.5259L95.5856 40.2199ZM104.944 36.9169L105.366 38.2871L105.413 38.2726L105.459 38.2549L104.944 36.9169ZM109.715 35.9994V37.433H109.77L109.825 37.4287L109.715 35.9994ZM112.869 37.4536C112.747 50.1902 112.808 63.1711 113.053 76.3961L115.92 76.343C115.675 63.1439 115.614 50.1899 115.736 37.4811L112.869 37.4536ZM113.053 76.4097C113.421 89.5174 114.033 102.564 114.891 115.55L117.752 115.361C116.897 102.412 116.286 89.4011 115.919 76.3293L113.053 76.4097ZM114.892 115.563C115.872 128.554 117.159 141.241 118.753 153.623L121.597 153.257C120.01 140.927 118.728 128.291 117.751 115.347L114.892 115.563ZM118.755 153.637C120.473 166.035 122.684 177.826 125.387 189.009L128.174 188.335C125.495 177.253 123.301 165.556 121.595 153.243L118.755 153.637ZM125.37 188.928C125.645 190.442 126.192 191.932 126.99 193.396L129.507 192.023C128.838 190.795 128.405 189.594 128.191 188.416L125.37 188.928ZM126.99 193.396C127.708 194.712 128.365 196.026 128.962 197.339L131.572 196.153C130.946 194.774 130.257 193.398 129.507 192.023L126.99 193.396ZM128.985 197.387C129.588 198.594 130.129 199.736 130.609 200.815L133.229 199.65C132.73 198.527 132.17 197.345 131.549 196.105L128.985 197.387ZM130.609 200.815C131.046 201.799 131.382 202.911 131.609 204.159L134.43 203.646C134.168 202.203 133.77 200.868 133.229 199.65L130.609 200.815ZM131.612 204.173C132.179 207.12 132.009 209.997 131.104 212.824L133.835 213.698C134.887 210.409 135.084 207.046 134.428 203.632L131.612 204.173ZM131.085 212.888C130.316 215.744 128.953 217.112 127.167 217.559L127.862 220.34C130.97 219.564 132.91 217.139 133.854 213.634L131.085 212.888ZM127.11 217.574C125.102 218.165 123.868 218.18 123.197 217.957L122.29 220.677C123.822 221.187 125.768 220.958 127.919 220.325L127.11 217.574ZM123.091 217.926C122.411 217.756 121.715 217.361 121.005 216.651L118.977 218.679C119.981 219.682 121.119 220.388 122.396 220.707L123.091 217.926ZM121.08 216.732C120.389 215.926 119.689 214.995 118.982 213.934L116.596 215.524C117.357 216.665 118.125 217.691 118.903 218.598L121.08 216.732ZM118.936 213.869C118.113 212.771 117.041 211.708 115.749 210.674L113.958 212.913C115.112 213.836 115.998 214.73 116.642 215.589L118.936 213.869ZM115.749 210.674C115.693 210.629 115.535 210.462 115.337 210.018C115.147 209.589 114.958 208.989 114.787 208.19L111.983 208.79C112.179 209.704 112.419 210.511 112.717 211.183C113.01 211.84 113.402 212.468 113.958 212.913L115.749 210.674ZM114.804 208.287C114.539 206.43 113.765 203.69 112.538 200.132L109.828 201.067C111.048 204.604 111.742 207.125 111.966 208.693L114.804 208.287ZM112.523 200.089C112.043 198.829 111.692 197.789 111.464 196.961C111.229 196.11 111.149 195.571 111.149 195.278H108.282C108.282 195.964 108.446 196.801 108.7 197.724C108.961 198.67 109.345 199.802 109.843 201.11L112.523 200.089ZM111.134 195.481C111.268 194.542 111.332 193.494 111.332 192.342H108.465C108.465 193.393 108.407 194.301 108.296 195.075L111.134 195.481ZM111.327 192.22C110.955 187.885 110.337 183.492 109.471 179.04L106.656 179.587C107.503 183.943 108.108 188.236 108.47 192.464L111.327 192.22ZM109.472 179.047C108.614 174.511 107.695 169.914 106.714 165.256L103.908 165.846C104.885 170.486 105.801 175.064 106.655 179.58L109.472 179.047ZM106.715 165.263C105.739 160.503 104.824 155.744 103.97 150.985L101.148 151.491C102.006 156.274 102.926 161.056 103.907 165.839L106.715 165.263ZM103.976 151.025C103.248 146.17 102.702 141.191 102.337 136.089L99.4772 136.293C99.8467 141.466 100.401 146.519 101.141 151.451L103.976 151.025ZM102.336 136.077C101.726 128.387 101.237 120.573 100.871 112.637L98.007 112.769C98.3747 120.736 98.8651 128.581 99.478 136.304L102.336 136.077ZM100.872 112.659C100.627 104.572 100.259 96.119 99.7695 87.3001L96.9067 87.4591C97.3954 96.2562 97.7619 104.685 98.0062 112.746L100.872 112.659ZM97.4303 86.27C95.9522 87.4794 94.6868 88.949 93.6306 90.6652L96.0725 92.1679C96.9737 90.7035 98.0327 89.4818 99.2459 88.4891L97.4303 86.27ZM93.5893 90.7369C92.6776 92.4301 91.9086 94.3603 91.2742 96.5171L94.0249 97.3261C94.6139 95.3236 95.3129 93.5837 96.1138 92.0963L93.5893 90.7369ZM91.2812 96.494C90.6645 98.4675 90.0486 100.562 89.4333 102.777L92.1959 103.544C92.8039 101.355 93.4113 99.2905 94.0179 97.3492L91.2812 96.494ZM89.4191 102.832C88.9283 104.918 88.4377 107.065 87.9471 109.272L90.746 109.894C91.2341 107.698 91.7222 105.563 92.2101 103.489L89.4191 102.832ZM87.9599 109.219C85.9904 116.728 84.2084 125.087 82.6125 134.294L85.4376 134.784C87.0224 125.641 88.7881 117.363 90.7333 109.947L87.9599 109.219ZM82.6125 134.294C81.0201 143.482 79.5501 152.669 78.2026 161.856L81.0394 162.272C82.3833 153.11 83.8494 143.947 85.4376 134.784L82.6125 134.294ZM78.2029 161.854C77.7267 165.069 76.9529 168.224 75.8808 171.321L78.5902 172.259C79.7201 168.995 80.5367 165.666 81.0391 162.275L78.2029 161.854ZM75.8867 171.304C74.7232 174.536 74.2589 177.739 74.5224 180.901L77.3797 180.662C77.1538 177.952 77.5458 175.161 78.5844 172.276L75.8867 171.304ZM74.5224 180.901C74.6661 182.626 75.3022 184.469 76.3376 186.411L78.8675 185.061C77.9455 183.333 77.4806 181.873 77.3797 180.662L74.5224 180.901ZM76.3376 186.411C77.2395 188.102 77.4566 189.351 77.293 190.251L80.114 190.763C80.4397 188.972 79.9229 187.04 78.8675 185.061L76.3376 186.411ZM77.2917 190.258C76.9786 192.032 76.2464 193.079 75.2287 193.673L76.6734 196.149C78.5916 195.03 79.6944 193.141 80.1153 190.756L77.2917 190.258ZM75.1813 193.702C74.0828 194.401 72.8245 194.762 71.3635 194.762V197.629C73.3278 197.629 75.1279 197.134 76.7207 196.121L75.1813 193.702ZM71.2613 194.766C69.722 194.876 68.177 194.712 66.6193 194.267L65.8316 197.024C67.6992 197.557 69.5797 197.76 71.4656 197.626L71.2613 194.766ZM66.5258 194.243C64.9336 193.902 63.6203 193.401 62.559 192.764L61.0839 195.223C62.4692 196.054 64.092 196.654 65.9251 197.047L66.5258 194.243ZM63.1356 193.421C61.0789 188.702 59.2006 183.614 57.5018 178.154L54.764 179.005C56.4906 184.555 58.4046 189.743 60.5073 194.566L63.1356 193.421ZM57.5102 178.182C55.9171 172.667 54.2628 167.153 52.5473 161.639L49.8095 162.49C51.5193 167.986 53.168 173.482 54.7556 178.977L57.5102 178.182ZM52.5432 161.626C51.4643 158.269 50.6241 154.789 50.0235 151.186L47.1953 151.657C47.818 155.394 48.6905 159.009 49.8136 162.503L52.5432 161.626ZM50.0304 151.232C49.5372 147.533 48.8603 143.35 48.0008 138.684L45.181 139.203C46.0341 143.834 46.7029 147.97 47.1884 151.611L50.0304 151.232ZM48.0147 138.776C47.7508 136.533 47.0945 134.253 46.0659 131.939L43.4458 133.103C44.3746 135.193 44.9416 137.194 45.1671 139.111L48.0147 138.776ZM46.1011 132.025C45.2833 129.806 44.7616 127.597 44.5301 125.398L41.6786 125.698C41.9365 128.147 42.5157 130.587 43.4107 133.016L46.1011 132.025ZM44.5185 125.312C44.2931 123.96 44.2371 122.611 44.3495 121.263L41.4922 121.025C41.3599 122.612 41.4263 124.199 41.6903 125.783L44.5185 125.312ZM44.3502 121.254C44.4751 119.63 44.538 118.064 44.538 116.556H41.6708C41.6708 117.985 41.6112 119.477 41.4915 121.034L44.3502 121.254ZM44.538 116.556C44.538 114.892 44.41 113.284 44.1515 111.733L41.3233 112.204C41.5541 113.589 41.6708 115.039 41.6708 116.556H44.538ZM44.166 111.85C44.0228 110.131 43.4493 108.503 42.4788 106.979L40.0599 108.518C40.8021 109.684 41.2072 110.87 41.3087 112.088L44.166 111.85ZM40.5829 106.49C38.9947 107.356 37.8187 108.569 37.1858 110.152L39.8479 111.217C40.1937 110.352 40.8527 109.608 41.9558 109.007L40.5829 106.49ZM37.2068 110.102C36.6654 111.32 36.2677 112.655 36.0054 114.098L38.8263 114.611C39.0533 113.362 39.3896 112.25 39.8269 111.266L37.2068 110.102ZM35.9893 114.212C35.8619 115.486 35.7987 116.819 35.7987 118.208H38.6659C38.6659 116.905 38.7251 115.669 38.8423 114.497L35.9893 114.212ZM35.7987 118.208C35.7987 119.466 35.6843 120.656 35.4596 121.78L38.2711 122.342C38.5357 121.02 38.6659 119.64 38.6659 118.208H35.7987ZM35.484 121.678C34.8856 123.832 34.1668 125.989 33.3272 128.148L35.9994 129.187C36.8725 126.942 37.6218 124.694 38.2466 122.445L35.484 121.678ZM33.3272 128.148C32.4541 130.393 31.7049 132.64 31.08 134.89L33.8426 135.657C34.4411 133.503 35.1598 131.346 35.9994 129.187L33.3272 128.148ZM31.077 134.901C29.3615 141.272 27.7073 147.705 26.1145 154.199L28.8991 154.882C30.4869 148.409 32.1358 141.997 33.8456 135.646L31.077 134.901ZM26.1099 154.219C24.6599 160.502 22.7919 166.16 20.5121 171.199L23.1244 172.381C25.4933 167.144 27.4176 161.303 28.9037 154.863L26.1099 154.219ZM20.3847 171.79V180.781H23.2519V171.79H20.3847ZM20.8046 179.768C19.5316 181.041 18.0769 181.814 16.416 182.125L16.9444 184.943C19.1983 184.52 21.1689 183.458 22.832 181.795L20.8046 179.768ZM16.3325 182.143C14.6035 182.575 12.885 182.575 11.1559 182.143L10.4605 184.925C12.6461 185.471 14.8423 185.471 17.0279 184.925L16.3325 182.143ZM11.0894 182.128C9.45278 181.801 7.92117 181.147 6.48621 180.153L4.85417 182.511C6.5999 183.719 8.49364 184.533 10.5271 184.94L11.0894 182.128ZM6.54427 180.196C5.11073 179.093 4.1089 177.862 3.48533 176.511L0.882027 177.712C1.72647 179.542 3.04898 181.124 4.79611 182.468L6.54427 180.196ZM3.5198 177.631C10.3954 159.951 16.1641 141.355 20.8271 121.844L18.0384 121.177C13.404 140.569 7.67332 159.04 0.847556 176.592L3.5198 177.631ZM20.8251 121.852C25.6023 102.376 29.9504 82.3498 33.8696 61.7742L31.053 61.2377C27.1428 81.7663 22.8052 101.743 18.0404 121.169L20.8251 121.852ZM33.2211 62.7217C34.6055 61.8564 35.4045 60.489 35.7068 58.8264L32.8858 58.3135C32.6988 59.3423 32.2744 59.9322 31.7015 60.2903L33.2211 62.7217ZM35.7104 58.8056C35.9176 57.5624 36.3518 56.8088 36.8808 56.3554L35.0149 54.1785C33.8312 55.1931 33.1643 56.6415 32.8822 58.3343L35.7104 58.8056ZM37.3814 55.2669V48.1104H34.5142V55.2669H37.3814ZM36.3795 49.4775C38.7901 48.7162 41.0228 47.7607 43.0732 46.6074L41.6675 44.1084C39.8032 45.1571 37.7542 46.0366 35.5161 46.7433L36.3795 49.4775ZM43.1302 46.5736C44.9079 45.4625 47.0547 44.6621 49.5998 44.1994L49.0869 41.3784C46.2494 41.8943 43.7475 42.8066 41.6105 44.1422L43.1302 46.5736ZM48.592 44.0098C49.9722 44.8591 50.8463 45.8659 51.3231 47.0103L53.9697 45.9075C53.2232 44.1158 51.8953 42.676 50.0947 41.5679L48.592 44.0098ZM51.3413 47.0521C51.862 48.1976 52.1303 49.4614 52.1303 50.8629H54.9975C54.9975 49.0837 54.6541 47.4115 53.9515 45.8657L51.3413 47.0521ZM52.1303 50.8629C52.1303 52.3798 52.0136 53.9634 51.7777 55.6147L54.6161 56.0202C54.8695 54.2461 54.9975 52.5267 54.9975 50.8629H52.1303ZM51.78 55.5994C51.5243 57.2611 51.3963 58.9243 51.3963 60.5885H54.2635C54.2635 59.072 54.3801 57.5545 54.6138 56.0354L51.78 55.5994ZM51.3963 60.5885C51.3963 67.2563 51.8285 74.1645 52.6911 81.3123L55.5377 80.9688C54.6877 73.9258 54.2635 67.1326 54.2635 60.5885H51.3963ZM52.6915 81.3153C53.5497 88.3037 54.5305 95.3529 55.6338 102.463L58.4671 102.023C57.3683 94.9426 56.3918 87.9235 55.5373 80.9658L52.6915 81.3153ZM55.6344 102.467C56.7356 109.441 57.8368 116.354 58.938 123.206L61.7689 122.751C60.6681 115.902 59.5673 108.991 58.4665 102.02L55.6344 102.467ZM58.9422 123.231C60.1627 130.066 61.1996 136.532 62.0532 142.629L64.8927 142.231C64.0336 136.095 62.9908 129.593 61.7647 122.727L58.9422 123.231ZM64.0054 143.761C65.4284 143.192 66.59 142.342 67.2867 141.123L64.7972 139.7C64.5152 140.194 63.9642 140.689 62.9405 141.099L64.0054 143.761ZM67.3242 141.052C67.8783 139.944 68.2374 138.81 68.382 137.653L65.5369 137.297C65.4368 138.098 65.1843 138.921 64.7597 139.77L67.3242 141.052ZM68.3843 137.634C68.5183 136.427 68.5183 135.22 68.3843 134.014L65.5346 134.331C65.6453 135.326 65.6453 136.321 65.5346 137.317L68.3843 137.634ZM68.386 134.03C68.2766 132.936 68.3368 132.005 68.5338 131.217L65.7522 130.522C65.4598 131.691 65.3977 132.962 65.533 134.315L68.386 134.03ZM68.5554 131.115C69.0372 128.344 69.6392 125.636 70.3611 122.989L67.5949 122.235C66.8488 124.97 66.2274 127.767 65.7306 130.624L68.5554 131.115ZM70.3441 123.046C71.2061 120.337 72.0672 117.446 72.9275 114.374L70.1665 113.601C69.3141 116.645 68.4625 119.503 67.6119 122.177L70.3441 123.046ZM72.9294 114.367C74.6455 108.115 76.2392 101.986 77.7105 95.9781L74.9256 95.2961C73.4608 101.277 71.8739 107.381 70.1645 113.608L72.9294 114.367ZM77.7037 96.0047C79.2923 90.0168 80.9421 83.9676 82.653 77.8571L79.892 77.084C78.1776 83.2068 76.5244 89.2687 74.9323 95.2695L77.7037 96.0047ZM82.6463 77.8803C84.7208 70.9246 86.7941 64.4612 88.866 58.4893L86.1572 57.5496C84.0697 63.5665 81.9836 70.0704 79.8987 77.0608L82.6463 77.8803ZM88.8604 58.505C91.0363 52.461 93.6959 46.5974 96.84 40.9138L94.3311 39.5259C91.1139 45.3417 88.3909 51.3445 86.1627 57.5339L88.8604 58.505ZM95.8213 41.634C97.4354 41.3649 99.0873 40.8319 100.774 40.0535L99.5724 37.4502C98.0782 38.1398 96.6718 38.5855 95.3499 38.8058L95.8213 41.634ZM100.774 40.0535C102.309 39.3449 103.84 38.7566 105.366 38.2871L104.523 35.5467C102.868 36.0558 101.218 36.6908 99.5724 37.4502L100.774 40.0535ZM105.459 38.2549C106.897 37.7019 108.313 37.433 109.715 37.433V34.5658C107.937 34.5658 106.172 34.9085 104.429 35.5788L105.459 38.2549ZM109.825 37.4287C111.017 37.3371 112.208 37.6886 113.443 38.6142L115.163 36.3205C113.461 35.0441 111.594 34.417 109.605 34.57L109.825 37.4287ZM252.087 127.199L253.478 127.547L253.499 127.463L253.51 127.377L252.087 127.199ZM251.537 133.622L252.819 134.263L252.971 133.96V133.622H251.537ZM251.353 134.906L252.735 135.29L252.787 135.102V134.906H251.353ZM249.151 141.512L247.815 140.993L247.807 141.014L247.8 141.035L249.151 141.512ZM246.766 147.935L245.43 147.415L245.43 147.415L246.766 147.935ZM244.564 154.541L243.183 154.157L243.183 154.157L244.564 154.541ZM243.646 161.33L244.839 162.126L245.08 161.764V161.33H243.646ZM236.306 173.441L235.053 172.745L235.046 172.758L236.306 173.441ZM228.783 186.287L227.569 185.524L227.569 185.524L228.783 186.287ZM220.342 198.398L219.208 197.52L219.201 197.529L219.195 197.537L220.342 198.398ZM210.616 208.49L209.725 207.367L209.708 207.381L209.69 207.396L210.616 208.49ZM204.928 212.344L204.231 211.09L204.189 211.114L204.149 211.14L204.928 212.344ZM198.138 216.014L198.726 217.321L198.726 217.321L198.138 216.014ZM190.431 218.583L190.113 217.185L190.106 217.186L190.099 217.188L190.431 218.583ZM183.091 219.5L183.056 220.933L183.074 220.934H183.091V219.5ZM169.696 215.83L170.427 214.597L170.427 214.597L169.696 215.83ZM153.547 193.076L154.923 192.673L154.921 192.664L153.547 193.076ZM150.978 177.662L149.546 177.727L150.978 177.662ZM152.079 161.697L153.489 161.96L153.489 161.96L152.079 161.697ZM156.85 147.017L158.14 147.644L158.145 147.633L158.151 147.621L156.85 147.017ZM163.824 136.191L162.711 135.287L162.708 135.291L163.824 136.191ZM174.1 125.181L173.139 124.117L173.13 124.125L173.121 124.133L174.1 125.181ZM185.66 116.189L186.447 117.388L186.46 117.379L186.472 117.371L185.66 116.189ZM196.303 110.684L195.909 109.306L195.895 109.31L195.882 109.314L196.303 110.684ZM206.396 109.583L206.29 111.013L206.316 111.015L206.343 111.016L206.396 109.583ZM216.121 110.684L216.981 109.537L216.717 109.339L216.392 109.276L216.121 110.684ZM220.709 117.107L219.374 117.629L219.388 117.665L219.404 117.7L220.709 117.107ZM223.094 126.098L221.669 126.257L221.67 126.263L223.094 126.098ZM223.094 136.191L221.668 136.043L221.666 136.066L221.664 136.089L223.094 136.191ZM221.259 145.916L219.894 145.479L219.894 145.479L221.259 145.916ZM217.222 153.807L216.091 152.927L216.075 152.947L216.06 152.968L217.222 153.807ZM211.717 158.027L212.111 159.406L212.122 159.403L211.717 158.027ZM206.212 158.578L206.123 160.009L206.123 160.009L206.212 158.578ZM200.707 157.477L200.106 158.779L200.165 158.805L200.225 158.827L200.707 157.477ZM196.487 154.541L197.5 153.527L197.5 153.527L196.487 154.541ZM194.101 150.32L192.689 150.566L192.695 150.605L192.704 150.643L194.101 150.32ZM194.652 144.081L193.459 143.286L193.45 143.299L193.442 143.312L194.652 144.081ZM198.138 140.411L198.981 141.571L198.99 141.565L198.998 141.558L198.138 140.411ZM202.359 137.108L203.267 138.218L203.276 138.21L202.359 137.108ZM205.111 131.603L206.529 131.816L206.681 130.804L205.773 130.331L205.111 131.603ZM194.652 130.869L194.264 129.489L194.252 129.493L194.652 130.869ZM183.458 136.558L184.299 137.719L184.306 137.714L183.458 136.558ZM168.962 155.825L167.565 155.503L167.563 155.51L167.561 155.517L168.962 155.825ZM167.494 173.258L168.924 173.163L168.924 173.163L167.494 173.258ZM170.98 187.571L169.69 188.196L169.694 188.204L169.698 188.212L170.98 187.571ZM179.605 196.93L178.898 198.177L178.898 198.177L179.605 196.93ZM193 198.581L192.757 197.168L192.747 197.17L192.738 197.172L193 198.581ZM202.726 194.177L201.866 193.03L201.851 193.041L201.836 193.053L202.726 194.177ZM210.616 186.103L209.48 185.229L209.469 185.243L209.459 185.257L210.616 186.103ZM217.222 176.01L218.477 176.703L218.482 176.694L218.487 176.685L217.222 176.01ZM222.727 165.734L223.99 166.414L223.995 166.404L224 166.394L222.727 165.734ZM228.049 153.99L226.728 153.434L226.724 153.443L226.72 153.452L228.049 153.99ZM233.003 139.677L234.386 140.057L234.386 140.057L233.003 139.677ZM235.756 125.181L237.182 125.327L237.182 125.323L235.756 125.181ZM234.655 112.152L233.275 112.54L233.282 112.566L233.29 112.592L234.655 112.152ZM228.232 102.61L227.337 103.73L227.347 103.738L227.358 103.746L228.232 102.61ZM215.02 98.5731L215.081 97.1408L215.074 97.1405L215.066 97.1403L215.02 98.5731ZM203.827 100.041L203.415 98.668L203.415 98.668L203.827 100.041ZM192.633 103.895L192.116 102.558L192.108 102.561L192.101 102.564L192.633 103.895ZM181.44 108.299L180.922 106.962L180.915 106.965L180.907 106.968L181.44 108.299ZM170.063 111.602L170.291 113.017L170.309 113.014L170.327 113.011L170.063 111.602ZM158.318 111.785L158.491 110.362L158.318 111.785ZM145.84 107.381L144.615 108.125L144.807 108.442L145.129 108.626L145.84 107.381ZM142.354 97.1051L140.921 97.1563L140.922 97.1818L140.924 97.2073L142.354 97.1051ZM143.455 87.1961L142.085 86.7745L142.077 86.7988L142.071 86.8234L143.455 87.1961ZM147.675 78.021L146.46 77.2612L146.46 77.2612L147.675 78.021ZM153.547 70.1305L154.616 71.0864L154.626 71.0751L154.636 71.0635L153.547 70.1305ZM164.925 59.4875L165.813 60.6127L165.822 60.6055L165.831 60.5983L164.925 59.4875ZM178.871 49.2114L178.089 48.0094L178.083 48.0138L178.871 49.2114ZM186.761 44.4404L187.467 45.6884L187.475 45.6836L187.483 45.6787L186.761 44.4404ZM195.386 40.0364L195.957 41.3511L195.97 41.3455L195.983 41.3396L195.386 40.0364ZM204.01 36.9169L204.372 38.304L204.372 38.304L204.01 36.9169ZM211.717 35.9994L211.797 34.568L211.793 34.5677L211.717 35.9994ZM218.874 38.2014L218.209 39.4713L218.244 39.4899L218.281 39.5065L218.874 38.2014ZM226.214 42.9724L225.261 44.0439L225.261 44.0439L226.214 42.9724ZM231.719 49.3949L230.507 50.1604L230.516 50.1754L230.526 50.1901L231.719 49.3949ZM233.737 55.8174L235.164 55.9601L235.167 55.9309L235.168 55.9016L233.737 55.8174ZM232.636 59.4875L233.89 60.1837L233.905 60.1564L233.919 60.1286L232.636 59.4875ZM230.251 62.607L229.237 61.5933L229.237 61.5933L230.251 62.607ZM227.498 64.809L228.139 66.0912L228.2 66.0608L228.258 66.0247L227.498 64.809ZM224.929 65.7265L225.107 67.149L225.136 67.1454L225.165 67.1406L224.929 65.7265ZM219.791 64.6255L218.931 65.7724L218.963 65.7962L218.996 65.8183L219.791 64.6255ZM215.571 60.9555L214.514 61.9242L214.535 61.9471L214.557 61.9692L215.571 60.9555ZM206.212 54.7164L206.39 53.2939L206.376 53.2922L206.362 53.2907L206.212 54.7164ZM198.689 55.8174L199.123 57.1836L199.151 57.1747L199.179 57.1647L198.689 55.8174ZM190.615 59.304L191.28 60.5739L191.291 60.5683L191.301 60.5625L190.615 59.304ZM183.275 63.8915L184.114 65.0537L184.125 65.0456L183.275 63.8915ZM177.77 67.9285L178.615 69.0865L178.622 69.081L178.63 69.0754L177.77 67.9285ZM166.76 77.654L167.833 78.6039L167.833 78.6039L166.76 77.654ZM159.053 89.9486L157.752 89.3458L157.235 90.4601L158.257 91.1414L159.053 89.9486ZM169.145 93.2516V94.6852H169.171L169.196 94.6843L169.145 93.2516ZM179.605 91.4166L180.03 92.7858L179.605 91.4166ZM190.064 87.3796L190.668 88.6799L190.678 88.6753L190.687 88.6706L190.064 87.3796ZM200.707 83.3426L201.088 84.7246L201.101 84.721L200.707 83.3426ZM216.672 80.9571L216.704 82.3903L216.704 82.3903L216.672 80.9571ZM232.086 82.9756L231.664 84.3458L231.674 84.3487L232.086 82.9756ZM244.931 90.1321L243.972 91.1977L243.972 91.1977L244.931 90.1321ZM252.454 102.977L253.845 102.629L253.843 102.622L252.454 102.977ZM253.005 105.363L251.599 105.644L251.606 105.677L251.614 105.71L253.005 105.363ZM253.188 106.831H251.755V107.063L251.828 107.284L253.188 106.831ZM253.372 108.299H251.938V108.401L251.953 108.501L253.372 108.299ZM253.005 122.061L254.383 122.455L254.407 122.373L254.421 122.288L253.005 122.061ZM252.454 124.63L253.869 124.866L253.871 124.849L253.874 124.833L252.454 124.63ZM250.697 126.852C250.287 128.492 250.103 130.773 250.103 133.622H252.971C252.971 130.843 253.154 128.843 253.478 127.547L250.697 126.852ZM250.255 132.981C249.969 133.552 249.92 134.282 249.92 134.906H252.787C252.787 134.643 252.801 134.455 252.818 134.329C252.838 134.19 252.855 134.191 252.819 134.263L250.255 132.981ZM249.972 134.523C249.374 136.677 248.655 138.834 247.815 140.993L250.488 142.032C251.361 139.787 252.11 137.54 252.735 135.29L249.972 134.523ZM247.8 141.035C247.071 143.1 246.281 145.226 245.43 147.415L248.102 148.454C248.963 146.239 249.764 144.084 250.503 141.989L247.8 141.035ZM245.43 147.415C244.557 149.66 243.807 151.908 243.183 154.157L245.945 154.925C246.544 152.77 247.262 150.613 248.102 148.454L245.43 147.415ZM243.183 154.157C242.536 156.486 242.213 158.879 242.213 161.33H245.08C245.08 159.134 245.369 157 245.945 154.925L243.183 154.157ZM242.454 160.535C239.983 164.242 237.516 168.312 235.053 172.745L237.56 174.138C239.99 169.763 242.417 165.759 244.839 162.126L242.454 160.535ZM235.046 172.758C232.737 177.011 230.245 181.267 227.569 185.524L229.997 187.049C232.704 182.743 235.227 178.435 237.566 174.125L235.046 172.758ZM227.569 185.524C224.901 189.768 222.114 193.766 219.208 197.52L221.475 199.275C224.441 195.444 227.282 191.369 229.997 187.049L227.569 185.524ZM219.195 197.537C216.327 201.362 213.169 204.635 209.725 207.367L211.507 209.613C215.158 206.717 218.485 203.263 221.489 199.258L219.195 197.537ZM209.69 207.396C208.184 208.67 206.368 209.903 204.231 211.09L205.624 213.597C207.891 212.337 209.868 211.001 211.542 209.585L209.69 207.396ZM204.149 211.14C202.135 212.443 199.936 213.633 197.55 214.706L198.726 217.321C201.234 216.193 203.561 214.935 205.707 213.547L204.149 211.14ZM197.55 214.706C195.193 215.767 192.714 216.594 190.113 217.185L190.749 219.981C193.531 219.348 196.19 218.462 198.726 217.321L197.55 214.706ZM190.099 217.188C187.624 217.777 185.29 218.067 183.091 218.067V220.934C185.541 220.934 188.1 220.611 190.763 219.977L190.099 217.188ZM183.126 218.067C178.33 217.95 174.11 216.784 170.427 214.597L168.964 217.063C173.111 219.525 177.82 220.806 183.056 220.933L183.126 218.067ZM170.427 214.597C166.699 212.384 163.547 209.411 160.968 205.659L158.605 207.284C161.409 211.362 164.863 214.628 168.964 217.063L170.427 214.597ZM160.968 205.659C158.371 201.882 156.353 197.558 154.923 192.673L152.172 193.479C153.678 198.626 155.819 203.232 158.605 207.284L160.968 205.659ZM154.921 192.664C153.488 187.889 152.65 182.868 152.411 177.597L149.546 177.727C149.796 183.221 150.671 188.476 152.174 193.488L154.921 192.664ZM152.411 177.597C152.171 172.323 152.53 167.111 153.489 161.96L150.67 161.435C149.671 166.804 149.297 172.236 149.546 177.727L152.411 177.597ZM153.489 161.96C154.446 156.818 155.997 152.048 158.14 147.644L155.561 146.39C153.3 151.039 151.671 156.056 150.67 161.435L153.489 161.96ZM158.151 147.621C159.68 144.327 161.934 140.817 164.939 137.091L162.708 135.291C159.596 139.149 157.202 142.857 155.55 146.414L158.151 147.621ZM164.936 137.095C168.076 133.231 171.456 129.609 175.078 126.229L173.121 124.133C169.403 127.603 165.933 131.321 162.711 135.287L164.936 137.095ZM175.06 126.245C178.803 122.864 182.599 119.913 186.447 117.388L184.874 114.991C180.892 117.603 176.981 120.647 173.139 124.117L175.06 126.245ZM186.472 117.371C190.314 114.729 193.729 112.976 196.725 112.054L195.882 109.314C192.516 110.349 188.836 112.266 184.848 115.008L186.472 117.371ZM196.697 112.063C199.972 111.127 203.167 110.782 206.29 111.013L206.502 108.153C203.018 107.895 199.485 108.284 195.909 109.306L196.697 112.063ZM206.343 111.016C209.574 111.135 212.743 111.494 215.851 112.092L216.392 109.276C213.138 108.651 209.823 108.276 206.449 108.151L206.343 111.016ZM215.261 111.831C216.96 113.105 218.347 115.005 219.374 117.629L222.044 116.584C220.868 113.581 219.197 111.199 216.981 109.537L215.261 111.831ZM219.404 117.7C220.557 120.238 221.317 123.085 221.669 126.257L224.519 125.94C224.137 122.505 223.307 119.358 222.014 116.513L219.404 117.7ZM221.67 126.263C222.024 129.329 222.026 132.588 221.668 136.043L224.52 136.338C224.897 132.699 224.899 129.229 224.518 125.934L221.67 126.263ZM221.664 136.089C221.427 139.408 220.835 142.537 219.894 145.479L222.625 146.353C223.64 143.179 224.272 139.824 224.524 136.293L221.664 136.089ZM219.894 145.479C218.959 148.401 217.686 150.876 216.091 152.927L218.354 154.687C220.184 152.334 221.602 149.548 222.625 146.353L219.894 145.479ZM216.06 152.968C214.608 154.978 213.017 156.151 211.313 156.652L212.122 159.403C214.577 158.681 216.656 157.04 218.384 154.646L216.06 152.968ZM211.323 156.649C209.783 157.089 208.112 157.26 206.302 157.147L206.123 160.009C208.227 160.14 210.226 159.944 212.111 159.406L211.323 156.649ZM206.302 157.147C204.468 157.032 202.766 156.69 201.189 156.127L200.225 158.827C202.074 159.487 204.042 159.879 206.123 160.009L206.302 157.147ZM201.308 156.175C199.869 155.511 198.603 154.629 197.5 153.527L195.473 155.555C196.817 156.899 198.364 157.975 200.106 158.779L201.308 156.175ZM197.5 153.527C196.455 152.482 195.801 151.311 195.498 149.998L192.704 150.643C193.135 152.511 194.072 154.153 195.473 155.555L197.5 153.527ZM195.514 150.075C195.042 147.362 195.3 145.733 195.861 144.851L193.442 143.312C192.291 145.121 192.182 147.652 192.689 150.566L195.514 150.075ZM195.844 144.877C196.735 143.541 197.781 142.444 198.981 141.571L197.295 139.252C195.804 140.336 194.526 141.686 193.459 143.286L195.844 144.877ZM198.998 141.558C200.482 140.446 201.904 139.332 203.267 138.218L201.451 135.999C200.122 137.086 198.731 138.175 197.278 139.264L198.998 141.558ZM203.276 138.21C205.086 136.702 206.126 134.505 206.529 131.816L203.693 131.391C203.363 133.595 202.567 135.068 201.441 136.007L203.276 138.21ZM205.773 130.331C202.334 128.543 198.462 128.308 194.264 129.489L195.04 132.249C198.671 131.228 201.772 131.483 204.45 132.875L205.773 130.331ZM194.252 129.493C190.276 130.647 186.395 132.626 182.61 135.402L184.306 137.714C187.861 135.107 191.443 133.294 195.051 132.246L194.252 129.493ZM182.617 135.397C178.953 138.05 175.733 141.208 172.957 144.866L175.242 146.599C177.849 143.162 180.868 140.204 184.299 137.719L182.617 135.397ZM172.957 144.866C170.186 148.52 168.358 152.067 167.565 155.503L170.358 156.148C171.034 153.222 172.631 150.041 175.242 146.599L172.957 144.866ZM167.561 155.517C166.19 161.749 165.686 167.696 166.063 173.353L168.924 173.163C168.567 167.81 169.041 162.135 170.362 156.133L167.561 155.517ZM166.063 173.353C166.44 179.001 167.636 183.96 169.69 188.196L172.27 186.946C170.409 183.108 169.281 178.525 168.924 173.163L166.063 173.353ZM169.698 188.212C171.891 192.599 174.955 195.942 178.898 198.177L180.311 195.682C176.914 193.757 174.228 190.862 172.262 186.93L169.698 188.212ZM178.898 198.177C182.933 200.464 187.761 201.014 193.262 199.99L192.738 197.172C187.718 198.106 183.616 197.555 180.311 195.682L178.898 198.177ZM193.244 199.994C197.037 199.34 200.499 197.768 203.616 195.301L201.836 193.053C199.08 195.235 196.058 196.599 192.757 197.168L193.244 199.994ZM203.586 195.324C206.643 193.031 209.372 190.236 211.774 186.949L209.459 185.257C207.212 188.332 204.68 190.919 201.866 193.03L203.586 195.324ZM211.753 186.977C214.244 183.738 216.485 180.314 218.477 176.703L215.967 175.318C214.044 178.803 211.882 182.106 209.48 185.229L211.753 186.977ZM218.487 176.685C220.444 173.017 222.278 169.593 223.99 166.414L221.465 165.055C219.751 168.237 217.915 171.664 215.957 175.336L218.487 176.685ZM224 166.394C225.738 163.042 227.53 159.085 229.377 154.529L226.72 153.452C224.897 157.949 223.142 161.821 221.455 165.075L224 166.394ZM229.37 154.547C231.352 149.84 233.024 145.01 234.386 140.057L231.621 139.297C230.292 144.131 228.661 148.843 226.728 153.434L229.37 154.547ZM234.386 140.057C235.751 135.092 236.684 130.181 237.182 125.327L234.33 125.034C233.849 129.722 232.947 134.476 231.621 139.297L234.386 140.057ZM237.182 125.323C237.687 120.278 237.316 115.731 236.019 111.712L233.29 112.592C234.441 116.158 234.804 120.296 234.329 125.038L237.182 125.323ZM236.035 111.764C234.851 107.556 232.535 104.112 229.106 101.474L227.358 103.746C230.291 106.002 232.256 108.919 233.275 112.54L236.035 111.764ZM229.128 101.491C225.743 98.7831 220.999 97.3926 215.081 97.1408L214.959 100.005C220.541 100.243 224.604 101.544 227.337 103.73L229.128 101.491ZM215.066 97.1403C211.118 97.0129 207.232 97.5229 203.415 98.668L204.239 101.414C207.762 100.357 211.338 99.8887 214.974 100.006L215.066 97.1403ZM203.415 98.668C199.707 99.7803 195.941 101.077 192.116 102.558L193.151 105.232C196.91 103.776 200.606 102.504 204.239 101.414L203.415 98.668ZM192.101 102.564C188.436 104.03 184.71 105.496 180.922 106.962L181.957 109.636C185.754 108.166 189.49 106.696 193.166 105.226L192.101 102.564ZM180.907 106.968C177.324 108.401 173.622 109.476 169.798 110.193L170.327 113.011C174.332 112.26 178.215 111.133 181.972 109.63L180.907 106.968ZM169.834 110.186C166.182 110.775 162.403 110.836 158.491 110.362L158.146 113.208C162.308 113.713 166.358 113.651 170.291 113.017L169.834 110.186ZM158.491 110.362C154.679 109.9 150.702 108.508 146.552 106.136L145.129 108.626C149.542 111.148 153.884 112.692 158.146 113.208L158.491 110.362ZM147.066 106.637C145.085 103.374 144.01 100.166 143.784 97.003L140.924 97.2073C141.187 100.895 142.437 104.538 144.615 108.125L147.066 106.637ZM143.787 97.054C143.669 93.7657 144.022 90.6058 144.839 87.5688L142.071 86.8234C141.176 90.1477 140.794 93.5939 140.921 97.1563L143.787 97.054ZM144.825 87.6177C145.766 84.5607 147.119 81.6156 148.891 78.7808L146.46 77.2612C144.561 80.2985 143.101 83.4701 142.085 86.7745L144.825 87.6177ZM148.891 78.7808C150.687 75.9068 152.596 73.3435 154.616 71.0864L152.479 69.1746C150.339 71.5662 148.334 74.2632 146.46 77.2612L148.891 78.7808ZM154.636 71.0635C157.496 67.7264 161.216 64.2419 165.813 60.6127L164.036 58.3622C159.336 62.073 155.471 65.6839 152.459 69.1975L154.636 71.0635ZM165.831 60.5983C170.444 56.8345 175.054 53.4385 179.659 50.4091L178.083 48.0138C173.39 51.101 168.702 54.5557 164.018 58.3766L165.831 60.5983ZM179.652 50.4134C182.071 48.8408 184.676 47.2657 187.467 45.6884L186.056 43.1924C183.219 44.7957 180.563 46.4013 178.089 48.0094L179.652 50.4134ZM187.483 45.6787C190.376 43.9914 193.2 42.5497 195.957 41.3511L194.814 38.7217C191.943 39.9697 189.018 41.464 186.039 43.2021L187.483 45.6787ZM195.983 41.3396C198.851 40.0249 201.647 39.0148 204.372 38.304L203.648 35.5297C200.746 36.2869 197.792 37.3564 194.788 38.7331L195.983 41.3396ZM204.372 38.304C207.077 37.5984 209.496 37.318 211.642 37.431L211.793 34.5677C209.29 34.436 206.571 34.7673 203.648 35.5297L204.372 38.304ZM211.638 37.4307C213.582 37.5387 215.766 38.1921 218.209 39.4713L219.539 36.9314C216.843 35.5193 214.257 34.7046 211.797 34.568L211.638 37.4307ZM218.281 39.5065C220.842 40.6706 223.167 42.1823 225.261 44.0439L227.166 41.9009C224.856 39.8478 222.289 38.1788 219.467 36.8963L218.281 39.5065ZM225.261 44.0439C227.37 45.9183 229.115 47.9576 230.507 50.1604L232.931 48.6294C231.386 46.1835 229.462 43.9412 227.166 41.9009L225.261 44.0439ZM230.526 50.1901C231.868 52.2036 232.406 54.0403 232.306 55.7333L235.168 55.9016C235.314 53.4352 234.505 50.9902 232.912 48.5997L230.526 50.1901ZM232.311 55.6748C232.208 56.7061 231.896 57.7615 231.354 58.8463L233.919 60.1286C234.6 58.7667 235.022 57.3754 235.164 55.9601L232.311 55.6748ZM231.383 58.7912C230.842 59.7649 230.131 60.6996 229.237 61.5933L231.265 63.6207C232.328 62.557 233.207 61.412 233.89 60.1837L231.383 58.7912ZM229.237 61.5933C228.454 62.3767 227.621 63.0419 226.739 63.5933L228.258 66.0247C229.333 65.3527 230.335 64.55 231.265 63.6207L229.237 61.5933ZM226.857 63.5267C225.952 63.9792 225.237 64.2218 224.694 64.3124L225.165 67.1406C226.089 66.9865 227.087 66.6174 228.139 66.0912L226.857 63.5267ZM224.751 64.304C223.092 64.5113 221.734 64.1977 220.586 63.4326L218.996 65.8183C220.785 67.0106 222.851 67.431 225.107 67.149L224.751 64.304ZM220.651 63.4786C219.24 62.4198 217.884 61.2412 216.584 59.9418L214.557 61.9692C215.949 63.361 217.407 64.6292 218.931 65.7724L220.651 63.4786ZM216.628 59.9867C215.24 58.4734 213.787 57.0832 212.268 55.8171L210.432 58.0198C211.849 59.2004 213.21 60.5015 214.514 61.9242L216.628 59.9867ZM212.268 55.8171C210.582 54.4122 208.61 53.5714 206.39 53.2939L206.034 56.139C207.729 56.3508 209.182 56.978 210.432 58.0198L212.268 55.8171ZM206.362 53.2907C203.778 53.0187 201.049 53.4335 198.199 54.4701L199.179 57.1647C201.711 56.244 203.998 55.9248 206.062 56.1422L206.362 53.2907ZM198.254 54.4513C195.468 55.3376 192.693 56.5373 189.928 58.0454L191.301 60.5625C193.919 59.1346 196.526 58.0099 199.123 57.1836L198.254 54.4513ZM189.949 58.034C187.316 59.4134 184.808 60.9812 182.424 62.7374L184.125 65.0456C186.39 63.3764 188.775 61.8859 191.28 60.5739L189.949 58.034ZM182.435 62.7293C180.229 64.3225 178.387 65.6736 176.909 66.7816L178.63 69.0754C180.088 67.9813 181.916 66.6411 184.114 65.0537L182.435 62.7293ZM176.925 66.7704C172.339 70.1163 168.586 73.426 165.686 76.7042L167.833 78.6039C170.561 75.5207 174.147 72.3467 178.615 69.0865L176.925 66.7704ZM165.686 76.7042C162.757 80.0148 160.118 84.2398 157.752 89.3458L160.353 90.5514C162.636 85.626 165.135 81.6546 167.833 78.6039L165.686 76.7042ZM158.257 91.1414C161.757 93.4748 165.394 94.6852 169.145 94.6852V91.818C166.046 91.818 162.954 90.8264 159.848 88.7558L158.257 91.1414ZM169.196 94.6843C172.759 94.5571 176.371 93.9213 180.03 92.7858L179.18 90.0474C175.743 91.1139 172.382 91.7015 169.094 91.8189L169.196 94.6843ZM180.03 92.7858C183.639 91.6655 187.185 90.2967 190.668 88.6799L189.46 86.0793C186.092 87.6432 182.665 88.9657 179.18 90.0474L180.03 92.7858ZM190.687 88.6706C194.163 86.9929 197.63 85.6787 201.088 84.7245L200.326 81.9606C196.689 82.9638 193.061 84.3409 189.441 86.0885L190.687 88.6706ZM201.101 84.721C206.118 83.2877 211.317 82.51 216.704 82.3903L216.64 79.5238C211.016 79.6488 205.573 80.4614 200.313 81.9641L201.101 84.721ZM216.704 82.3903C222.071 82.271 227.054 82.9273 231.664 84.3458L232.507 81.6054C227.575 80.0878 222.283 79.3984 216.64 79.5238L216.704 82.3903ZM231.674 84.3487C236.372 85.758 240.465 88.0413 243.972 91.1977L245.89 89.0665C242.057 85.6169 237.587 83.1291 232.498 81.6024L231.674 84.3487ZM243.972 91.1977C247.411 94.2928 249.783 98.3176 251.066 103.332L253.843 102.622C252.435 97.116 249.791 92.5774 245.89 89.0665L243.972 91.1977ZM251.064 103.325C251.306 104.293 251.483 105.064 251.599 105.644L254.411 105.082C254.282 104.438 254.092 103.619 253.845 102.629L251.064 103.325ZM251.614 105.71C251.709 106.089 251.755 106.462 251.755 106.831H254.622C254.622 106.221 254.546 105.614 254.396 105.015L251.614 105.71ZM251.828 107.284C251.882 107.445 251.938 107.762 251.938 108.299H254.806C254.806 107.612 254.739 106.95 254.548 106.377L251.828 107.284ZM251.953 108.501C252.186 110.132 252.305 112.019 252.305 114.171H255.173C255.173 111.918 255.048 109.891 254.791 108.096L251.953 108.501ZM252.305 114.171C252.305 116.273 252.071 118.824 251.589 121.835L254.421 122.288C254.917 119.182 255.173 116.472 255.173 114.171H252.305ZM251.626 121.667C251.364 122.585 251.167 123.505 251.035 124.428L253.874 124.833C253.986 124.043 254.156 123.251 254.383 122.455L251.626 121.667ZM251.04 124.395C250.914 125.153 250.789 126.029 250.665 127.021L253.51 127.377C253.631 126.412 253.75 125.576 253.869 124.866L251.04 124.395Z" fill="white" mask="url(#path-1-outside-1_6_10)"/>
</g>
</g>
<defs>
<filter id="filter0_b_6_10" x="-1.024" y="-1.024" width="258.048" height="258.048" filterUnits="userSpaceOnUse" color-interpolation-filters="sRGB">
<feFlood flood-opacity="0" result="BackgroundImageFix"/>
<feGaussianBlur in="BackgroundImageFix" stdDeviation="0.512"/>
<feComposite in2="SourceAlpha" operator="in" result="effect1_backgroundBlur_6_10"/>
<feBlend mode="normal" in="SourceGraphic" in2="effect1_backgroundBlur_6_10" result="shape"/>
</filter>
<filter id="filter1_d_6_10" x="-3.55071" y="35.8158" width="263.024" height="195.52" filterUnits="userSpaceOnUse" color-interpolation-filters="sRGB">
<feFlood flood-opacity="0" result="BackgroundImageFix"/>
<feColorMatrix in="SourceAlpha" type="matrix" values="0 0 0 0 0 0 0 0 0 0 0 0 0 0 0 0 0 0 127 0" result="hardAlpha"/>
<feOffset dy="5.7344"/>
<feGaussianBlur stdDeviation="2.8672"/>
<feComposite in2="hardAlpha" operator="out"/>
<feColorMatrix type="matrix" values="0 0 0 0 0 0 0 0 0 0 0 0 0 0 0 0 0 0 0.25 0"/>
<feBlend mode="normal" in2="BackgroundImageFix" result="effect1_dropShadow_6_10"/>
<feBlend mode="normal" in="SourceGraphic" in2="effect1_dropShadow_6_10" result="shape"/>
</filter>
<clipPath id="clip0_6_10">
<rect width="256" height="256" fill="white"/>
</clipPath>
</defs>
</svg>
